<svg width="338" height="249" viewBox="0 0 338 249" fill="none" xmlns="http://www.w3.org/2000/svg">
<path d="M161.5 249C120.397 249 84.9533 237.98 66.4868 219.513C48.0203 201.047 37 165.603 37 124.5C37 83.3971 48.0203 47.9533 66.4868 29.4868C84.9533 11.0203 120.397 0 161.5 0C202.603 0 238.047 11.0203 256.513 29.4868C274.98 47.9533 286 83.3971 286 124.5C286 165.603 274.98 201.047 256.513 219.513C238.047 237.98 202.603 249 161.5 249Z" fill="#567FEE"/>
<mask id="mask0_3436_84524" style="mask-type:alpha" maskUnits="userSpaceOnUse" x="37" y="0" width="249" height="249">
<path d="M161.5 249C120.397 249 84.9533 237.98 66.4868 219.513C48.0203 201.047 37 165.603 37 124.5C37 83.3971 48.0203 47.9533 66.4868 29.4868C84.9533 11.0203 120.397 0 161.5 0C202.603 0 238.047 11.0203 256.513 29.4868C274.98 47.9533 286 83.3971 286 124.5C286 165.603 274.98 201.047 256.513 219.513C238.047 237.98 202.603 249 161.5 249Z" fill="#11CBD7"/>
</mask>
<g mask="url(#mask0_3436_84524)">
<g filter="url(#filter0_d_3436_84524)">
<path d="M250 63.0087V235.931L173.549 263.314C169.587 266.361 164.836 268 159.963 268C155.089 268 150.338 266.361 146.376 263.314L70 235.931V63.0087C70 59.8238 71.1781 56.7693 73.2753 54.5173C75.3724 52.2652 78.2167 51 81.1824 51H239.153C242.06 51.0937 244.819 52.4001 246.844 54.6421C248.869 56.8841 250.001 59.8853 250 63.0087Z" fill="white"/>
</g>
<path d="M194.083 102H122.417C120.53 102 119 103.567 119 105.5C119 107.433 120.53 109 122.417 109H194.083C195.97 109 197.5 107.433 197.5 105.5C197.5 103.567 195.97 102 194.083 102Z" fill="#1A1C34" fill-opacity="0.1"/>
<path d="M194.083 118H122.417C120.53 118 119 119.567 119 121.5C119 123.433 120.53 125 122.417 125H194.083C195.97 125 197.5 123.433 197.5 121.5C197.5 119.567 195.97 118 194.083 118Z" fill="#1A1C34" fill-opacity="0.1"/>
<path d="M194.083 134H122.417C120.53 134 119 135.567 119 137.5C119 139.433 120.53 141 122.417 141H194.083C195.97 141 197.5 139.433 197.5 137.5C197.5 135.567 195.97 134 194.083 134Z" fill="#1A1C34" fill-opacity="0.1"/>
<line x1="94" y1="187.5" x2="149" y2="187.5" stroke="#E8E8EB"/>
<line x1="175" y1="187.5" x2="230" y2="187.5" stroke="#E8E8EB"/>
<path d="M109.153 163C108.85 165.624 108.201 168.091 107.459 170.624C106.656 173.361 105.962 176.664 103.874 178.72C102.629 179.946 101.284 180.906 101.072 178.585C100.865 176.323 101.112 174.103 101.711 171.919C102.092 170.529 102.705 167.705 104.226 167.075C106.742 166.033 109.21 172.079 110.105 173.525C110.779 174.614 113.231 178.89 115.071 177.438C116.959 175.947 117.376 171.828 117.73 169.612C117.964 168.145 117.832 169.979 117.834 170.205C117.843 171.299 117.889 172.385 118.017 173.471C118.229 175.275 119.499 173.295 120.024 172.58C120.401 172.067 120.703 171.5 121.08 170.988C121.485 170.437 121.934 172.274 122.005 172.432C122.576 173.699 123.808 177.011 125.459 175.198C125.985 174.62 126.332 173.961 126.489 173.187C126.572 172.778 126.524 173.851 126.528 173.916C126.585 174.795 126.876 175.038 127.675 174.78C128.15 174.626 128.238 174.758 128.679 174.847C132.117 175.542 136.367 174.509 139.732 173.795C141.646 173.388 140.347 173.783 141.296 174.361C141.866 174.708 141.948 173.769 142 173.444" stroke="black" stroke-linecap="round"/>
</g>
<path d="M290.339 226.834L291.663 223.625C291.735 223.441 291.861 223.283 292.025 223.171C292.189 223.06 292.382 223 292.58 223C292.778 223 292.971 223.06 293.135 223.171C293.298 223.283 293.424 223.441 293.497 223.625L294.821 226.834C294.929 227.071 295.123 227.259 295.364 227.36L298.555 228.701C298.734 228.776 298.887 228.902 298.995 229.064C299.102 229.225 299.16 229.415 299.16 229.609C299.16 229.803 299.102 229.993 298.995 230.155C298.887 230.316 298.734 230.443 298.555 230.517L295.364 231.859C295.123 231.959 294.929 232.147 294.821 232.385L293.497 235.593C293.418 235.771 293.29 235.922 293.127 236.029C292.964 236.135 292.774 236.191 292.58 236.191C292.386 236.191 292.195 236.135 292.033 236.029C291.87 235.922 291.741 235.771 291.663 235.593L290.339 232.385C290.231 232.147 290.037 231.959 289.796 231.859L286.604 230.517C286.425 230.443 286.272 230.316 286.165 230.155C286.057 229.993 286 229.803 286 229.609C286 229.415 286.057 229.225 286.165 229.064C286.272 228.902 286.425 228.776 286.604 228.701L289.796 227.36C290.037 227.259 290.231 227.071 290.339 226.834Z" fill="white"/>
<path d="M50.339 3.83373L51.6632 0.625278C51.7354 0.440982 51.8615 0.282738 52.025 0.171194C52.1885 0.0596506 52.3819 0 52.5799 0C52.7778 0 52.9712 0.0596506 53.1347 0.171194C53.2982 0.282738 53.4244 0.440982 53.4966 0.625278L54.8207 3.83373C54.929 4.07136 55.123 4.25933 55.3639 4.35998L58.5554 5.70109C58.7345 5.77605 58.8873 5.90225 58.9949 6.06384C59.1024 6.22543 59.1598 6.41521 59.1598 6.60931C59.1598 6.8034 59.1024 6.99316 58.9949 7.15475C58.8873 7.31634 58.7345 7.44254 58.5554 7.5175L55.3639 8.85861C55.123 8.95926 54.929 9.14723 54.8207 9.38486L53.4966 12.5933C53.4183 12.7712 53.2899 12.9224 53.1271 13.0286C52.9644 13.1348 52.7742 13.1914 52.5799 13.1914C52.3855 13.1914 52.1953 13.1348 52.0326 13.0286C51.8698 12.9224 51.7415 12.7712 51.6632 12.5933L50.339 9.38486C50.2308 9.14723 50.0367 8.95926 49.7958 8.85861L46.6044 7.5175C46.4253 7.44254 46.2724 7.31634 46.1648 7.15475C46.0573 6.99316 46 6.8034 46 6.60931C46 6.41521 46.0573 6.22543 46.1648 6.06384C46.2724 5.90225 46.4253 5.77605 46.6044 5.70109L49.7958 4.35998C50.0367 4.25933 50.2308 4.07136 50.339 3.83373Z" fill="white"/>
<path d="M325.173 227.346C326.373 227.346 327.346 226.373 327.346 225.173C327.346 223.973 326.373 223 325.173 223C323.973 223 323 223.973 323 225.173C323 226.373 323.973 227.346 325.173 227.346Z" fill="#FBF9F9"/>
<path d="M4.78554 44.2283L6.24599 40.6896C6.32566 40.4864 6.46468 40.3118 6.64504 40.1888C6.8254 40.0658 7.03867 40 7.25699 40C7.47531 40 7.68858 40.0658 7.86894 40.1888C8.04929 40.3118 8.18843 40.4864 8.2681 40.6896L9.72844 44.2283C9.84782 44.4903 10.0618 44.6976 10.3276 44.8087L13.8475 46.2878C14.045 46.3705 14.2136 46.5096 14.3322 46.6879C14.4508 46.8661 14.5141 47.0754 14.5141 47.2895C14.5141 47.5035 14.4508 47.7128 14.3322 47.891C14.2136 48.0693 14.045 48.2084 13.8475 48.2911L10.3276 49.7702C10.0618 49.8813 9.84782 50.0886 9.72844 50.3507L8.2681 53.8893C8.18174 54.0855 8.04012 54.2523 7.86059 54.3694C7.68107 54.4865 7.47134 54.5489 7.25699 54.5489C7.04264 54.5489 6.8329 54.4865 6.65338 54.3694C6.47386 54.2523 6.33234 54.0855 6.24599 53.8893L4.78554 50.3507C4.66615 50.0886 4.45214 49.8813 4.18639 49.7702L0.666572 48.2911C0.469109 48.2084 0.300406 48.0693 0.181813 47.891C0.0632206 47.7128 0 47.5035 0 47.2895C0 47.0754 0.0632206 46.8661 0.181813 46.6879C0.300406 46.5096 0.469109 46.3705 0.666572 46.2878L4.18639 44.8087C4.45214 44.6976 4.66615 44.4903 4.78554 44.2283Z" fill="white"/>
<path d="M4.39654 13.7931C5.72009 13.7931 6.79297 12.7201 6.79297 11.3966C6.79297 10.073 5.72009 9 4.39654 9C3.073 9 2 10.073 2 11.3966C2 12.7201 3.073 13.7931 4.39654 13.7931Z" fill="#FBF9F9"/>
<path d="M332.193 184.545L330.607 186.639C330.519 186.76 330.396 186.851 330.255 186.901C330.114 186.952 329.961 186.958 329.816 186.92C329.671 186.882 329.541 186.801 329.443 186.688C329.345 186.575 329.283 186.435 329.265 186.286L328.913 183.683C328.879 183.489 328.773 183.314 328.616 183.194L326.538 181.599C326.422 181.509 326.334 181.388 326.286 181.249C326.239 181.11 326.233 180.96 326.27 180.818C326.308 180.676 326.386 180.548 326.496 180.45C326.606 180.353 326.742 180.29 326.887 180.269L329.481 179.901C329.677 179.874 329.855 179.773 329.98 179.62L331.566 177.526C331.657 177.411 331.78 177.325 331.92 177.279C332.059 177.232 332.209 177.227 332.352 177.265C332.494 177.302 332.622 177.38 332.721 177.489C332.82 177.598 332.885 177.733 332.908 177.879L333.26 180.482C333.294 180.676 333.4 180.851 333.557 180.971L335.635 182.566C335.751 182.656 335.839 182.777 335.887 182.916C335.934 183.055 335.94 183.205 335.903 183.347C335.865 183.489 335.787 183.617 335.677 183.715C335.567 183.812 335.431 183.875 335.286 183.896L332.692 184.264C332.496 184.291 332.318 184.392 332.193 184.545Z" fill="white"/>
<g filter="url(#filter1_d_3436_84524)">
<path d="M274.237 79.528C277.014 76.092 282.052 75.5584 285.488 78.3361L293.264 84.6228C296.7 87.4005 297.234 92.4376 294.456 95.8736L234.103 170.53L213.884 154.184L274.237 79.528Z" fill="#DEE8F7"/>
<path d="M274.237 79.528C277.014 76.092 282.052 75.5584 285.488 78.3361L293.264 84.6228C296.7 87.4005 297.234 92.4376 294.456 95.8736L293.827 96.6512L273.608 80.3056L274.237 79.528Z" fill="#DEE8F7"/>
<path d="M274.237 79.528C277.014 76.092 282.052 75.5584 285.488 78.3361L293.264 84.6228C296.7 87.4005 297.234 92.4376 294.456 95.8736L240.39 162.753L220.171 146.407L274.237 79.528Z" fill="#067EFF"/>
<path d="M274.237 79.528C277.014 76.092 282.052 75.5584 285.488 78.3361L293.264 84.6228C296.7 87.4005 297.234 92.4376 294.456 95.8736L294.372 95.9783L274.152 79.6327L274.237 79.528Z" fill="#067EFF"/>
<path d="M210.163 179.465L213.884 154.184L234.103 170.53L210.163 179.465Z" fill="#DEE8F7"/>
<path d="M210.163 179.465L212.319 165.778L223.15 174.534L210.163 179.465Z" fill="#1A1C34"/>
<path fill-rule="evenodd" clip-rule="evenodd" d="M273.608 80.3057L293.827 96.6513L234.544 169.985C234.044 169.329 233.458 168.722 232.788 168.18C229.108 165.206 223.512 164.706 219.596 167.072C221.28 162.901 220.136 157.953 216.457 154.978C215.787 154.436 215.07 153.991 214.324 153.639L273.608 80.3057Z" fill="#20DAC4"/>
</g>
<g filter="url(#filter2_d_3436_84524)">
<path d="M187.949 70.0526C202.323 70.0526 213.975 58.4002 213.975 44.0263C213.975 29.6524 202.323 18 187.949 18C173.575 18 161.923 29.6524 161.923 44.0263C161.923 58.4002 173.575 70.0526 187.949 70.0526Z" fill="#FBF9F9"/>
<path d="M206.758 62.0174L224.771 44.0042L206.758 25.9909L188.745 44.0042L206.758 62.0174Z" fill="#FBF9F9"/>
<path d="M169.013 61.9837L187.027 43.9705L169.013 25.9572L151 43.9705L169.013 61.9837Z" fill="#FBF9F9"/>
<path d="M187.949 63.546C198.73 63.546 207.469 54.8067 207.469 44.0263C207.469 33.2459 198.73 24.5066 187.949 24.5066C177.169 24.5066 168.43 33.2459 168.43 44.0263C168.43 54.8067 177.169 63.546 187.949 63.546Z" fill="#067EFF"/>
<path d="M187.949 54.0618C193.492 54.0618 197.985 49.5688 197.985 44.0263C197.985 38.4838 193.492 33.9907 187.949 33.9907C182.407 33.9907 177.914 38.4838 177.914 44.0263C177.914 49.5688 182.407 54.0618 187.949 54.0618Z" fill="#342421"/>
<path d="M194.456 42.9236C197.501 42.9236 199.97 40.4549 199.97 37.4096C199.97 34.3642 197.501 31.8955 194.456 31.8955C191.41 31.8955 188.942 34.3642 188.942 37.4096C188.942 40.4549 191.41 42.9236 194.456 42.9236Z" fill="#FBF9F9"/>
</g>
<defs>
<filter id="filter0_d_3436_84524" x="70" y="51" width="183" height="222" filterUnits="userSpaceOnUse" color-interpolation-filters="sRGB">
<feFlood flood-opacity="0" result="BackgroundImageFix"/>
<feColorMatrix in="SourceAlpha" type="matrix" values="0 0 0 0 0 0 0 0 0 0 0 0 0 0 0 0 0 0 127 0" result="hardAlpha"/>
<feOffset dx="3" dy="5"/>
<feColorMatrix type="matrix" values="0 0 0 0 0 0 0 0 0 0 0 0 0 0 0 0 0 0 0.1 0"/>
<feBlend mode="normal" in2="BackgroundImageFix" result="effect1_dropShadow_3436_84524"/>
<feBlend mode="normal" in="SourceGraphic" in2="effect1_dropShadow_3436_84524" result="shape"/>
</filter>
<filter id="filter1_d_3436_84524" x="210.163" y="76.5571" width="89.0725" height="107.908" filterUnits="userSpaceOnUse" color-interpolation-filters="sRGB">
<feFlood flood-opacity="0" result="BackgroundImageFix"/>
<feColorMatrix in="SourceAlpha" type="matrix" values="0 0 0 0 0 0 0 0 0 0 0 0 0 0 0 0 0 0 127 0" result="hardAlpha"/>
<feOffset dx="3" dy="5"/>
<feColorMatrix type="matrix" values="0 0 0 0 0 0 0 0 0 0 0 0 0 0 0 0 0 0 0.1 0"/>
<feBlend mode="normal" in2="BackgroundImageFix" result="effect1_dropShadow_3436_84524"/>
<feBlend mode="normal" in="SourceGraphic" in2="effect1_dropShadow_3436_84524" result="shape"/>
</filter>
<filter id="filter2_d_3436_84524" x="151" y="18" width="76.7713" height="57.0525" filterUnits="userSpaceOnUse" color-interpolation-filters="sRGB">
<feFlood flood-opacity="0" result="BackgroundImageFix"/>
<feColorMatrix in="SourceAlpha" type="matrix" values="0 0 0 0 0 0 0 0 0 0 0 0 0 0 0 0 0 0 127 0" result="hardAlpha"/>
<feOffset dx="3" dy="5"/>
<feColorMatrix type="matrix" values="0 0 0 0 0 0 0 0 0 0 0 0 0 0 0 0 0 0 0.1 0"/>
<feBlend mode="normal" in2="BackgroundImageFix" result="effect1_dropShadow_3436_84524"/>
<feBlend mode="normal" in="SourceGraphic" in2="effect1_dropShadow_3436_84524" result="shape"/>
</filter>
</defs>
</svg>
