<svg xmlns="http://www.w3.org/2000/svg" width="1198" height="300" viewBox="0 0 1198 300" fill="none">
<g id="d866b1744b-light-testing">
<g clip-path="url(#d866b1744b-clip-0-3757-39690)">
<rect width="1198" height="300" rx="14" fill="#1F2544"/>
<g id="d866b1744b-group-1577">
<path id="d866b1744b-vector-113" d="M680.373 281.041V299.777L1232.12 346.871V-30H715.494L711.64 97.0357C711.64 81 711.925 103.839 714.336 106.25L761.256 153.17C763.131 155.046 765.675 156.099 768.327 156.099H782.92C788.443 156.099 792.92 160.576 792.92 166.099V212.35C792.92 217.873 788.443 222.35 782.92 222.35H768.327C765.675 222.35 763.131 223.404 761.256 225.279L718.423 268.112C716.548 269.988 714.004 271.041 711.352 271.041H690.373C684.85 271.041 680.373 275.518 680.373 281.041Z" fill="url(#d866b1744b-paint-0-linear-3757-39690)"/>
<g id="d866b1744b-bg">
<g id="d866b1744b-group-1365" opacity="0.5">
<path id="d866b1744b-subtract" d="M961.186 205.374L961.186 205.412C961.477 205.387 961.772 205.374 962.071 205.374C966.668 205.374 970.399 208.368 970.433 212.072H929.059C929.689 208.849 933.147 206.383 937.318 206.383C937.824 206.383 938.319 206.42 938.8 206.489C939.658 203.806 942.509 201.769 946.004 201.469C947.519 199.749 950.009 198.626 952.824 198.626C957.442 198.626 961.186 201.647 961.186 205.374Z" fill="#282F53"/>
<path id="d866b1744b-vector-121" d="M957.536 229.094L958.646 246.96L955.152 242.941V229.541C955.152 227.697 954.42 225.929 953.116 224.625C951.697 223.206 950.96 221.243 951.095 219.24L951.579 212.071H952.937V218.631C952.937 220.69 953.769 222.662 955.244 224.099C956.602 225.422 957.419 227.202 957.536 229.094Z" fill="#282F53"/>
<path id="d866b1744b-vector-122" d="M945.702 218.084C947.438 219.112 949.973 219.603 951.145 219.613L951.512 218.084C950.564 217.962 948.264 217.583 946.65 217.045C945.035 216.506 944.754 213.518 944.815 212.091H943.897C943.836 213.732 943.965 217.057 945.702 218.084Z" fill="#282F53"/>
<path id="d866b1744b-vector-123" d="M958.65 218.527C958.59 221.05 955.722 222.873 954.396 223.432L955.097 224.984C955.864 224.366 957.694 222.761 958.875 221.28C960.056 219.799 959.526 214.524 959.276 212.071H958.65C958.675 213.172 958.71 216.005 958.65 218.527Z" fill="#282F53"/>
</g>
<g id="d866b1744b-group-1346">
<mask id="d866b1744b-mask-0-3757-39690" style="mask-type:alpha" maskUnits="userSpaceOnUse" x="680" y="-32" width="574" height="379">
<path id="d866b1744b-vector-116" d="M680.373 281.041V299.777L1253.84 346.871V-32L715.494 -32L711.668 96.1026C711.649 96.7233 711.558 97.3393 711.482 97.9556C711.107 100.995 712.147 104.061 714.336 106.25L761.256 153.17C763.131 155.046 765.675 156.099 768.327 156.099H782.92C788.443 156.099 792.92 160.576 792.92 166.099V212.35C792.92 217.873 788.443 222.35 782.92 222.35H768.327C765.675 222.35 763.131 223.404 761.256 225.279L718.423 268.112C716.548 269.988 714.004 271.041 711.352 271.041H690.373C684.85 271.041 680.373 275.518 680.373 281.041Z" fill="url(#d866b1744b-paint-1-linear-3757-39690)"/>
</mask>
<g mask="url(#d866b1744b-mask-0-3757-39690)">
<path id="d866b1744b-vector-111" opacity="0.3" d="M1065.58 180.958H1244.17L1197.14 327.612L1024.61 324.072L956.723 306.373V265.284L1002.87 219.138H1027.4L1065.58 180.958Z" fill="#282F53"/>
<path id="d866b1744b-vector-112" opacity="0.5" d="M622.415 139.909H569.896L633.857 339.358L684.75 334.544L777.081 339.358V261.22C777.081 256.976 775.396 252.907 772.395 249.906L719.01 196.521C716.01 193.521 711.94 191.835 707.696 191.835H687.595C683.352 191.835 679.282 190.149 676.281 187.149L633.729 144.596C630.728 141.595 626.658 139.909 622.415 139.909Z" fill="#282F53"/>
<path id="d866b1744b-vector" opacity="0.3" d="M687 -18L1105 -12L981.975 125.208C979.478 128.224 975.767 129.97 971.851 129.97L946.83 129.97C942.727 129.97 938.859 131.886 936.373 135.151L922.849 152.915C920.363 156.18 916.495 158.096 912.392 158.096L851.833 158.096C847.73 158.096 843.862 156.18 841.376 152.915L827.852 135.151C825.366 131.886 821.498 129.97 817.395 129.97L792.374 129.97C788.458 129.97 784.747 128.224 782.25 125.208L687 -18Z" fill="#282F53"/>
<path id="d866b1744b-rectangle-643" d="M749.291 270.882C749.291 270.046 749.968 269.369 750.804 269.369H753.477C754.313 269.369 754.991 270.046 754.991 270.882V273.555C754.991 274.391 754.313 275.069 753.477 275.069H750.804C749.968 275.069 749.291 274.391 749.291 273.555V270.882Z" fill="#3C4471"/>
<path id="d866b1744b-rectangle-646" d="M804.38 116.188C804.38 115.352 805.057 114.674 805.893 114.674H808.567C809.402 114.674 810.08 115.352 810.08 116.188V118.861C810.08 119.697 809.402 120.374 808.567 120.374H805.893C805.057 120.374 804.38 119.697 804.38 118.861V116.188Z" fill="#3C4471"/>
<path id="d866b1744b-rectangle-665" d="M776 53.5131C776 52.6775 776.677 52 777.513 52H780.187C781.023 52 781.7 52.6775 781.7 53.5131V56.1869C781.7 57.0225 781.023 57.7 780.187 57.7H777.513C776.677 57.7 776 57.0225 776 56.1869V53.5131Z" fill="#3C4471"/>
<path id="d866b1744b-rectangle-647" d="M857.225 129.945C857.225 129.109 857.902 128.432 858.738 128.432H861.411C862.247 128.432 862.925 129.109 862.925 129.945V132.618C862.925 133.454 862.247 134.132 861.411 134.132H858.738C857.902 134.132 857.225 133.454 857.225 132.618V129.945Z" fill="#3C4471"/>
<path id="d866b1744b-rectangle-666" d="M841 70.5131C841 69.6775 841.677 69 842.513 69H845.187C846.023 69 846.7 69.6775 846.7 70.5131V73.1869C846.7 74.0225 846.023 74.7 845.187 74.7H842.513C841.677 74.7 841 74.0225 841 73.1869V70.5131Z" fill="#3C4471"/>
<path id="d866b1744b-rectangle-667" d="M909 43.5131C909 42.6775 909.677 42 910.513 42H913.187C914.023 42 914.7 42.6775 914.7 43.5131V46.1869C914.7 47.0225 914.023 47.7 913.187 47.7H910.513C909.677 47.7 909 47.0225 909 46.1869V43.5131Z" fill="#3C4471"/>
<path id="d866b1744b-rectangle-668" d="M950 68.5131C950 67.6775 950.677 67 951.513 67H954.187C955.023 67 955.7 67.6775 955.7 68.5131V71.1869C955.7 72.0225 955.023 72.7 954.187 72.7H951.513C950.677 72.7 950 72.0225 950 71.1869V68.5131Z" fill="#3C4471"/>
<path id="d866b1744b-rectangle-648" d="M937 106.513C937 105.677 937.677 105 938.513 105H941.187C942.023 105 942.7 105.677 942.7 106.513V109.187C942.7 110.023 942.023 110.7 941.187 110.7H938.513C937.677 110.7 937 110.023 937 109.187V106.513Z" fill="#3C4471"/>
<path id="d866b1744b-rectangle-649" d="M899.763 145.273C899.763 144.438 900.44 143.76 901.276 143.76H903.95C904.785 143.76 905.463 144.438 905.463 145.273V147.947C905.463 148.783 904.785 149.46 903.95 149.46H901.276C900.44 149.46 899.763 148.783 899.763 147.947V145.273Z" fill="#3C4471"/>
<path id="d866b1744b-rectangle-661" d="M1130.56 165.942C1130.56 165.106 1131.24 164.429 1132.07 164.429H1134.75C1135.58 164.429 1136.26 165.106 1136.26 165.942V168.616C1136.26 169.451 1135.58 170.129 1134.75 170.129H1132.07C1131.24 170.129 1130.56 169.451 1130.56 168.616V165.942Z" fill="#3C4471"/>
<path id="d866b1744b-rectangle-662" d="M1186.26 193.037C1186.26 192.201 1186.93 191.523 1187.77 191.523H1190.44C1191.28 191.523 1191.96 192.201 1191.96 193.037V195.71C1191.96 196.546 1191.28 197.223 1190.44 197.223H1187.77C1186.93 197.223 1186.26 196.546 1186.26 195.71V193.037Z" fill="#3C4471"/>
<path id="d866b1744b-rectangle-663" d="M1150.59 110.28C1150.59 109.444 1151.27 108.766 1152.1 108.766H1154.78C1155.61 108.766 1156.29 109.444 1156.29 110.28V112.953C1156.29 113.789 1155.61 114.466 1154.78 114.466H1152.1C1151.27 114.466 1150.59 113.789 1150.59 112.953V110.28Z" fill="#3C4471"/>
<path id="d866b1744b-rectangle-669" d="M1089 77.5131C1089 76.6775 1089.68 76 1090.51 76H1093.19C1094.02 76 1094.7 76.6775 1094.7 77.5131V80.1869C1094.7 81.0225 1094.02 81.7 1093.19 81.7H1090.51C1089.68 81.7 1089 81.0225 1089 80.1869V77.5131Z" fill="#3C4471"/>
<path id="d866b1744b-rectangle-670" d="M1137 33.5131C1137 32.6775 1137.68 32 1138.51 32H1141.19C1142.02 32 1142.7 32.6775 1142.7 33.5131V36.1869C1142.7 37.0225 1142.02 37.7 1141.19 37.7H1138.51C1137.68 37.7 1137 37.0225 1137 36.1869V33.5131Z" fill="#3C4471"/>
<path id="d866b1744b-rectangle-664" d="M1119.24 218.276C1119.24 217.441 1119.91 216.763 1120.75 216.763H1123.42C1124.26 216.763 1124.94 217.441 1124.94 218.276V220.95C1124.94 221.786 1124.26 222.463 1123.42 222.463H1120.75C1119.91 222.463 1119.24 221.786 1119.24 220.95V218.276Z" fill="#3C4471"/>
<path id="d866b1744b-rectangle-650" d="M1082.25 146.895C1082.25 146.059 1082.93 145.382 1083.76 145.382H1086.44C1087.27 145.382 1087.95 146.059 1087.95 146.895V149.568C1087.95 150.404 1087.27 151.082 1086.44 151.082H1083.76C1082.93 151.082 1082.25 150.404 1082.25 149.568V146.895Z" fill="#3C4471"/>
<path id="d866b1744b-rectangle-651" d="M1045.39 215.482C1045.39 214.646 1046.07 213.969 1046.9 213.969H1049.58C1050.41 213.969 1051.09 214.646 1051.09 215.482V218.155C1051.09 218.991 1050.41 219.669 1049.58 219.669H1046.9C1046.07 219.669 1045.39 218.991 1045.39 218.155V215.482Z" fill="#3C4471"/>
<path id="d866b1744b-rectangle-652" d="M1021.81 231.029C1021.81 230.193 1022.48 229.515 1023.32 229.515H1025.99C1026.83 229.515 1027.51 230.193 1027.51 231.029V233.702C1027.51 234.538 1026.83 235.215 1025.99 235.215H1023.32C1022.48 235.215 1021.81 234.538 1021.81 233.702V231.029Z" fill="#3C4471"/>
<path id="d866b1744b-rectangle-653" d="M1021.81 162.256C1021.81 161.421 1022.48 160.743 1023.32 160.743H1025.99C1026.83 160.743 1027.51 161.421 1027.51 162.256V164.93C1027.51 165.766 1026.83 166.443 1025.99 166.443H1023.32C1022.48 166.443 1021.81 165.766 1021.81 164.93V162.256Z" fill="#2C3358"/>
<path id="d866b1744b-rectangle-654" d="M983.312 193.113C983.312 192.277 983.99 191.6 984.826 191.6H987.499C988.335 191.6 989.012 192.277 989.012 193.113V195.787C989.012 196.623 988.335 197.3 987.499 197.3H984.826C983.99 197.3 983.312 196.623 983.312 195.787V193.113Z" fill="#2C3358"/>
<path id="d866b1744b-rectangle-655" d="M952.979 172.584C952.979 171.748 953.656 171.071 954.492 171.071H957.165C958.001 171.071 958.679 171.748 958.679 172.584V175.257C958.679 176.093 958.001 176.771 957.165 176.771H954.492C953.656 176.771 952.979 176.093 952.979 175.257V172.584Z" fill="#2C3358"/>
<path id="d866b1744b-rectangle-656" d="M875.062 208.773C875.062 207.937 875.74 207.26 876.576 207.26H879.249C880.085 207.26 880.762 207.937 880.762 208.773V211.446C880.762 212.282 880.085 212.96 879.249 212.96H876.576C875.74 212.96 875.062 212.282 875.062 211.446V208.773Z" fill="#2C3358"/>
<path id="d866b1744b-rectangle-657" d="M833.756 184.818C833.756 183.982 834.434 183.305 835.269 183.305H837.943C838.779 183.305 839.456 183.982 839.456 184.818V187.491C839.456 188.327 838.779 189.005 837.943 189.005H835.269C834.434 189.005 833.756 188.327 833.756 187.491V184.818Z" fill="#2C3358"/>
<path id="d866b1744b-rectangle-658" d="M800.777 151.667C800.777 150.831 801.455 150.154 802.29 150.154H804.964C805.8 150.154 806.477 150.831 806.477 151.667V154.341C806.477 155.176 805.8 155.854 804.964 155.854H802.29C801.455 155.854 800.777 155.176 800.777 154.341V151.667Z" fill="#2C3358"/>
<path id="d866b1744b-rectangle-659" d="M803.73 260.237C803.73 259.402 804.408 258.724 805.244 258.724H807.917C808.753 258.724 809.43 259.402 809.43 260.237V262.911C809.43 263.747 808.753 264.424 807.917 264.424H805.244C804.408 264.424 803.73 263.747 803.73 262.911V260.237Z" fill="#2C3358"/>
<path id="d866b1744b-rectangle-660" d="M741.436 115.031C741.436 114.195 742.113 113.517 742.949 113.517H745.622C746.458 113.517 747.136 114.195 747.136 115.031V117.704C747.136 118.54 746.458 119.217 745.622 119.217H742.949C742.113 119.217 741.436 118.54 741.436 117.704V115.031Z" fill="#2C3358"/>
<path id="d866b1744b-rectangle-644" d="M713.578 288.213C713.578 287.377 714.255 286.7 715.091 286.7H717.764C718.6 286.7 719.278 287.377 719.278 288.213V290.886C719.278 291.722 718.6 292.4 717.764 292.4H715.091C714.255 292.4 713.578 291.722 713.578 290.886V288.213Z" fill="#3C4471"/>
</g>
</g>
<g id="d866b1744b-group-1364">
<path id="d866b1744b-subtract-2" d="M1092.91 172.027L1092.91 172.096C1093.45 172.05 1094.01 172.027 1094.56 172.027C1103.15 172.027 1110.12 177.62 1110.18 184.539H1032.9C1034.07 178.517 1040.53 173.912 1048.32 173.912C1049.27 173.912 1050.19 173.98 1051.09 174.11C1052.7 169.097 1058.02 165.292 1064.55 164.732C1067.38 161.518 1072.03 159.421 1077.29 159.421C1085.92 159.421 1092.91 165.065 1092.91 172.027Z" fill="#282F53"/>
<path id="d866b1744b-vector-121-2" d="M1086.09 216.337L1088.17 249.711L1081.64 242.204V217.172C1081.64 213.728 1080.27 210.424 1077.83 207.988C1075.18 205.337 1073.81 201.67 1074.06 197.93L1074.96 184.537H1077.5V196.79C1077.5 200.637 1079.06 204.321 1081.81 207.005C1084.35 209.476 1085.87 212.802 1086.09 216.337Z" fill="#282F53"/>
<path id="d866b1744b-vector-122-2" d="M1063.98 195.77C1067.23 197.689 1071.96 198.607 1074.15 198.626L1074.84 195.77C1073.07 195.542 1068.77 194.833 1065.75 193.828C1062.74 192.822 1062.21 187.239 1062.33 184.573H1060.61C1060.5 187.639 1060.74 193.851 1063.98 195.77Z" fill="#282F53"/>
<path id="d866b1744b-vector-123-2" d="M1088.17 196.598C1088.06 201.31 1082.7 204.716 1080.23 205.76L1081.54 208.658C1082.97 207.505 1086.39 204.507 1088.59 201.74C1090.8 198.972 1089.81 189.118 1089.34 184.537H1088.17C1088.22 186.594 1088.29 191.886 1088.17 196.598Z" fill="#282F53"/>
</g>
<g id="d866b1744b-group-1362" opacity="0.5">
<path id="d866b1744b-rectangle-666-2" d="M940.285 219.23C940.285 218.678 939.837 218.23 939.285 218.23H932.301C931.748 218.23 931.301 218.678 931.301 219.23V223.012C931.301 223.564 931.748 224.012 932.301 224.012H939.285C939.837 224.012 940.285 223.564 940.285 223.012V219.23Z" fill="#444D7C"/>
<path id="d866b1744b-rectangle-665-2" d="M939.66 225.012C939.66 224.46 939.212 224.012 938.66 224.012H930.059C929.507 224.012 929.059 224.46 929.059 225.012V229.834C929.059 230.387 929.507 230.834 930.059 230.834H938.66C939.212 230.834 939.66 230.387 939.66 229.834V225.012Z" fill="#444D7C"/>
<path id="d866b1744b-rectangle-664-2" d="M944.027 231.834C944.027 231.282 943.579 230.834 943.027 230.834H931.492C930.94 230.834 930.492 231.282 930.492 231.834V238.545C930.492 239.097 930.94 239.545 931.492 239.545H943.027C943.579 239.545 944.027 239.097 944.027 238.545V231.834Z" fill="#444D7C"/>
</g>
<g id="d866b1744b-group-1371">
<path id="d866b1744b-rectangle-649-2" d="M1004.28 128.735C1004.28 128.182 1004.73 127.735 1005.28 127.735H1185.26C1185.81 127.735 1186.26 128.182 1186.26 128.735V133.005C1186.26 133.557 1185.81 134.005 1185.26 134.005H1065.46C1065.34 134.005 1065.22 133.984 1065.11 133.942L1062.95 133.139C1062.76 133.071 1062.57 133.058 1062.38 133.1L1058.45 133.98C1058.38 133.997 1058.31 134.005 1058.23 134.005H1005.28C1004.73 134.005 1004.28 133.557 1004.28 133.005V128.735Z" fill="#444D7C"/>
<path id="d866b1744b-rectangle-650-2" d="M996.895 122.464C996.895 121.912 997.342 121.464 997.895 121.464H1031C1031.15 121.464 1031.3 121.499 1031.44 121.565L1033.66 122.646C1033.93 122.779 1034.25 122.781 1034.52 122.652L1036.84 121.56C1036.97 121.497 1037.12 121.464 1037.27 121.464H1041.57H1137.83C1138.2 121.464 1138.54 121.671 1138.71 122.001L1138.75 122.069C1138.98 122.506 1139.49 122.711 1139.96 122.553L1142.41 121.72C1142.5 121.689 1142.59 121.672 1142.69 121.668L1147.78 121.464H1192.23C1192.78 121.464 1193.23 121.912 1193.23 122.464V126.735C1193.23 127.287 1192.78 127.735 1192.23 127.735H997.895C997.342 127.735 996.895 127.287 996.895 126.735V126.028C996.895 125.737 997.021 125.46 997.242 125.27L997.655 124.914L997.016 123.741C996.936 123.594 996.895 123.43 996.895 123.263V122.464Z" fill="#444D7C"/>
<g id="d866b1744b-group-1348">
<path id="d866b1744b-rectangle-647-2" d="M1157.45 141.275C1157.45 140.723 1157.9 140.275 1158.45 140.275H1173.7C1174.26 140.275 1174.7 140.723 1174.7 141.275V238.869C1174.7 239.421 1174.26 239.869 1173.7 239.869H1158.45C1157.9 239.869 1157.45 239.421 1157.45 238.869V210.53C1157.45 210.297 1157.53 210.071 1157.68 209.892L1159.22 208.033C1159.5 207.692 1159.53 207.205 1159.28 206.838L1158.28 205.357C1158.22 205.26 1158.17 205.154 1158.14 205.041L1157.48 202.387C1157.46 202.308 1157.45 202.226 1157.45 202.144V141.275Z" fill="#444D7C"/>
<path id="d866b1744b-rectangle-648-2" d="M1153.62 135.005C1153.62 134.452 1154.06 134.005 1154.62 134.005H1177.54C1178.09 134.005 1178.54 134.452 1178.54 135.005V139.275C1178.54 139.827 1178.09 140.275 1177.54 140.275H1154.62C1154.06 140.275 1153.62 139.827 1153.62 139.275V135.005Z" fill="#444D7C"/>
<path id="d866b1744b-rectangle-651-2" opacity="0.5" d="M1170.28 141.183C1170.28 140.631 1170.73 140.183 1171.28 140.183V140.183C1171.84 140.183 1172.29 140.631 1172.29 141.183V238.961C1172.29 239.513 1171.84 239.961 1171.28 239.961V239.961C1170.73 239.961 1170.28 239.513 1170.28 238.961V141.183Z" fill="#31385F"/>
<path id="d866b1744b-rectangle-652-2" opacity="0.5" d="M1165.33 141.275C1165.33 140.723 1165.79 140.275 1166.34 140.275V140.275C1166.89 140.275 1167.35 140.723 1167.35 141.275V239.053C1167.35 239.605 1166.89 240.053 1166.34 240.053V240.053C1165.79 240.053 1165.33 239.605 1165.33 239.053V141.275Z" fill="#31385F"/>
<path id="d866b1744b-rectangle-653-2" opacity="0.5" d="M1160.39 141.275C1160.39 140.723 1160.84 140.275 1161.39 140.275V140.275C1161.95 140.275 1162.4 140.723 1162.4 141.275V239.053C1162.4 239.605 1161.95 240.053 1161.39 240.053V240.053C1160.84 240.053 1160.39 239.605 1160.39 239.053V141.275Z" fill="#31385F"/>
</g>
<path id="d866b1744b-rectangle-654-2" opacity="0.5" d="M1178.54 122.338C1178.54 121.785 1178.99 121.338 1179.54 121.338H1192.44C1192.99 121.338 1193.44 121.785 1193.44 122.338V126.735C1193.44 127.287 1192.99 127.735 1192.44 127.735H1179.54C1178.99 127.735 1178.54 127.287 1178.54 126.735V122.338Z" fill="#31385F"/>
<path id="d866b1744b-rectangle-655-2" opacity="0.5" d="M1066.46 127.735H1185.19C1185.74 127.735 1186.19 128.182 1186.19 128.735V133.132C1186.19 133.684 1185.74 134.132 1185.19 134.132H1166.33C1166.33 134.684 1165.78 134.132 1166.33 134.132L1156.1 133.741C1156.64 133.751 1156.1 133.196 1156.1 133.741L1066.46 127.735Z" fill="#31385F"/>
<path id="d866b1744b-rectangle-656-2" opacity="0.5" d="M1171.29 134.786C1171.29 134.234 1171.73 133.786 1172.29 133.786H1177.74C1178.29 133.786 1178.74 134.234 1178.74 134.786V139.275C1178.74 139.827 1178.29 140.275 1177.74 140.275H1172.29C1171.73 140.275 1171.29 139.827 1171.29 139.275V134.786Z" fill="#31385F"/>
<path id="d866b1744b-rectangle-658-2" opacity="0.5" d="M1169.19 141.275C1169.19 140.722 1169.64 140.275 1170.19 140.275H1173.7C1174.26 140.275 1174.7 140.722 1174.7 141.275V238.869C1174.7 239.421 1174.26 239.869 1173.7 239.869H1170.19C1169.64 239.869 1169.19 239.421 1169.19 238.869V141.275Z" fill="#31385F"/>
<g id="d866b1744b-group-1356">
<g id="d866b1744b-group-1347">
<path id="d866b1744b-rectangle-647-3" d="M1016.39 141.275C1016.39 140.723 1016.84 140.275 1017.39 140.275H1032.65C1033.2 140.275 1033.65 140.723 1033.65 141.275V238.869C1033.65 239.421 1033.2 239.869 1032.65 239.869H1017.39C1016.84 239.869 1016.39 239.421 1016.39 238.869V191.101C1016.39 190.989 1016.41 190.878 1016.45 190.772L1017.21 188.59C1017.22 188.543 1017.24 188.494 1017.25 188.445L1017.86 185.179C1017.88 185.04 1017.88 184.898 1017.85 184.761L1016.42 178.847C1016.4 178.77 1016.39 178.692 1016.39 178.613V141.275Z" fill="#444D7C"/>
<path id="d866b1744b-rectangle-648-3" d="M1012.56 135.005C1012.56 134.452 1013.01 134.005 1013.56 134.005H1036.48C1037.04 134.005 1037.48 134.452 1037.48 135.005V139.275C1037.48 139.827 1037.04 140.275 1036.48 140.275H1013.56C1013.01 140.275 1012.56 139.827 1012.56 139.275V135.005Z" fill="#444D7C"/>
<path id="d866b1744b-rectangle-651-3" opacity="0.5" d="M1029.22 141.183C1029.22 140.631 1029.68 140.183 1030.23 140.183V140.183C1030.78 140.183 1031.24 140.631 1031.24 141.183V238.961C1031.24 239.513 1030.78 239.961 1030.23 239.961V239.961C1029.68 239.961 1029.22 239.513 1029.22 238.961V141.183Z" fill="#31385F"/>
<path id="d866b1744b-rectangle-652-3" opacity="0.5" d="M1024.28 141.275C1024.28 140.723 1024.73 140.275 1025.28 140.275V140.275C1025.84 140.275 1026.29 140.723 1026.29 141.275V239.053C1026.29 239.605 1025.84 240.053 1025.28 240.053V240.053C1024.73 240.053 1024.28 239.605 1024.28 239.053V141.275Z" fill="#31385F"/>
<path id="d866b1744b-rectangle-653-3" opacity="0.5" d="M1019.33 141.275C1019.33 140.723 1019.79 140.275 1020.34 140.275V140.275C1020.89 140.275 1021.35 140.723 1021.35 141.275V239.053C1021.35 239.605 1020.89 240.053 1020.34 240.053V240.053C1019.79 240.053 1019.33 239.605 1019.33 239.053V141.275Z" fill="#31385F"/>
</g>
<path id="d866b1744b-rectangle-657-2" opacity="0.5" d="M1027.26 134.977C1027.26 134.424 1027.7 133.977 1028.26 133.977H1036.57C1037.12 133.977 1037.57 134.424 1037.57 134.977V139.275C1037.57 139.827 1037.12 140.275 1036.57 140.275H1028.26C1027.7 140.275 1027.26 139.827 1027.26 139.275V134.977Z" fill="#31385F"/>
<path id="d866b1744b-rectangle-659-2" opacity="0.5" d="M1028.33 141.275C1028.33 140.722 1028.78 140.275 1029.33 140.275H1032.65C1033.2 140.275 1033.65 140.722 1033.65 141.275V238.843C1033.65 239.395 1033.2 239.843 1032.65 239.843H1029.33C1028.78 239.843 1028.33 239.395 1028.33 238.843V141.275Z" fill="#31385F"/>
</g>
<g id="d866b1744b-group-1357" opacity="0.3">
<g id="d866b1744b-group-1347-2">
<path id="d866b1744b-rectangle-647-4" d="M1094.71 141.275C1094.71 140.723 1095.16 140.275 1095.71 140.275H1110.96C1111.51 140.275 1111.96 140.723 1111.96 141.275V238.869C1111.96 239.421 1111.51 239.869 1110.96 239.869H1095.71C1095.16 239.869 1094.71 239.421 1094.71 238.869V141.275Z" fill="#444D7C"/>
<path id="d866b1744b-rectangle-648-4" d="M1090.87 135.005C1090.87 134.452 1091.32 134.005 1091.87 134.005H1114.8C1115.35 134.005 1115.8 134.452 1115.8 135.005V139.275C1115.8 139.827 1115.35 140.275 1114.8 140.275H1091.87C1091.32 140.275 1090.87 139.827 1090.87 139.275V135.005Z" fill="#444D7C"/>
<path id="d866b1744b-rectangle-651-4" opacity="0.5" d="M1107.54 141.183C1107.54 140.631 1107.99 140.183 1108.54 140.183V140.183C1109.1 140.183 1109.55 140.631 1109.55 141.183V238.961C1109.55 239.513 1109.1 239.961 1108.54 239.961V239.961C1107.99 239.961 1107.54 239.513 1107.54 238.961V141.183Z" fill="#31385F"/>
<path id="d866b1744b-rectangle-652-4" opacity="0.5" d="M1102.59 141.275C1102.59 140.723 1103.05 140.275 1103.6 140.275V140.275C1104.15 140.275 1104.61 140.723 1104.61 141.275V239.053C1104.61 239.605 1104.15 240.053 1103.6 240.053V240.053C1103.05 240.053 1102.59 239.605 1102.59 239.053V141.275Z" fill="#31385F"/>
<path id="d866b1744b-rectangle-653-4" opacity="0.5" d="M1097.65 141.275C1097.65 140.723 1098.1 140.275 1098.65 140.275V140.275C1099.21 140.275 1099.66 140.723 1099.66 141.275V239.053C1099.66 239.605 1099.21 240.053 1098.65 240.053V240.053C1098.1 240.053 1097.65 239.605 1097.65 239.053V141.275Z" fill="#31385F"/>
</g>
<path id="d866b1744b-rectangle-657-3" opacity="0.5" d="M1105.57 134.977C1105.57 134.424 1106.02 133.977 1106.57 133.977H1114.88C1115.43 133.977 1115.88 134.424 1115.88 134.977V139.275C1115.88 139.827 1115.43 140.275 1114.88 140.275H1106.57C1106.02 140.275 1105.57 139.827 1105.57 139.275V134.977Z" fill="#31385F"/>
<path id="d866b1744b-rectangle-659-3" opacity="0.5" d="M1106.65 141.275C1106.65 140.722 1107.09 140.275 1107.65 140.275H1110.96C1111.51 140.275 1111.96 140.722 1111.96 141.275V238.843C1111.96 239.395 1111.51 239.843 1110.96 239.843H1107.65C1107.09 239.843 1106.65 239.395 1106.65 238.843V141.275Z" fill="#31385F"/>
</g>
</g>
<g id="d866b1744b-group-1349">
<path id="d866b1744b-rectangle-649-3" d="M903.53 128.735C903.53 128.182 903.978 127.735 904.53 127.735H1084.5C1085.06 127.735 1085.5 128.182 1085.5 128.735V133.005C1085.5 133.557 1085.06 134.005 1084.5 134.005H964.706C964.587 134.005 964.469 133.984 964.357 133.942L962.194 133.139C962.013 133.071 961.816 133.058 961.627 133.1L957.699 133.98C957.627 133.997 957.554 134.005 957.48 134.005H904.53C903.977 134.005 903.53 133.557 903.53 133.005V128.735Z" fill="#444D7C"/>
<path id="d866b1744b-rectangle-650-3" d="M896.143 122.464C896.143 121.912 896.59 121.464 897.143 121.464H930.246C930.397 121.464 930.547 121.499 930.684 121.565L932.904 122.646C933.176 122.779 933.493 122.781 933.767 122.652L936.088 121.56C936.221 121.497 936.367 121.464 936.514 121.464H940.823H1037.07C1037.45 121.464 1037.79 121.671 1037.96 122.001L1038 122.069C1038.22 122.506 1038.74 122.711 1039.2 122.553L1041.65 121.72C1041.74 121.689 1041.84 121.672 1041.93 121.668L1047.02 121.464H1091.47C1092.03 121.464 1092.47 121.912 1092.47 122.464V126.735C1092.47 127.287 1092.03 127.735 1091.47 127.735H897.143C896.59 127.735 896.143 127.287 896.143 126.735V126.028C896.143 125.737 896.269 125.46 896.49 125.27L896.903 124.914L896.264 123.741C896.184 123.594 896.143 123.43 896.143 123.263V122.464Z" fill="#444D7C"/>
<g id="d866b1744b-group-1348-2">
<path id="d866b1744b-rectangle-647-5" d="M1056.7 141.275C1056.7 140.723 1057.15 140.275 1057.7 140.275H1072.95C1073.5 140.275 1073.95 140.723 1073.95 141.275V238.869C1073.95 239.421 1073.5 239.869 1072.95 239.869H1057.7C1057.15 239.869 1056.7 239.421 1056.7 238.869V210.53C1056.7 210.297 1056.78 210.071 1056.93 209.892L1058.47 208.033C1058.75 207.692 1058.77 207.205 1058.53 206.838L1057.53 205.357C1057.47 205.26 1057.42 205.154 1057.39 205.041L1056.73 202.387C1056.71 202.308 1056.7 202.226 1056.7 202.144V141.275Z" fill="#444D7C"/>
<path id="d866b1744b-rectangle-648-5" d="M1052.86 135.005C1052.86 134.452 1053.31 134.005 1053.86 134.005H1076.79C1077.34 134.005 1077.79 134.452 1077.79 135.005V139.275C1077.79 139.827 1077.34 140.275 1076.79 140.275H1053.86C1053.31 140.275 1052.86 139.827 1052.86 139.275V135.005Z" fill="#444D7C"/>
<path id="d866b1744b-rectangle-651-5" opacity="0.5" d="M1069.53 141.183C1069.53 140.631 1069.98 140.183 1070.53 140.183V140.183C1071.09 140.183 1071.54 140.631 1071.54 141.183V238.961C1071.54 239.513 1071.09 239.961 1070.53 239.961V239.961C1069.98 239.961 1069.53 239.513 1069.53 238.961V141.183Z" fill="#31385F"/>
<path id="d866b1744b-rectangle-652-5" opacity="0.5" d="M1064.58 141.275C1064.58 140.723 1065.04 140.275 1065.59 140.275V140.275C1066.14 140.275 1066.59 140.723 1066.59 141.275V239.053C1066.59 239.605 1066.14 240.053 1065.59 240.053V240.053C1065.04 240.053 1064.58 239.605 1064.58 239.053V141.275Z" fill="#31385F"/>
<path id="d866b1744b-rectangle-653-5" opacity="0.5" d="M1059.64 141.275C1059.64 140.723 1060.09 140.275 1060.64 140.275V140.275C1061.2 140.275 1061.65 140.723 1061.65 141.275V239.053C1061.65 239.605 1061.2 240.053 1060.64 240.053V240.053C1060.09 240.053 1059.64 239.605 1059.64 239.053V141.275Z" fill="#31385F"/>
</g>
<path id="d866b1744b-rectangle-654-3" opacity="0.5" d="M1077.79 122.338C1077.79 121.785 1078.23 121.338 1078.79 121.338H1091.69C1092.24 121.338 1092.69 121.785 1092.69 122.338V126.735C1092.69 127.287 1092.24 127.735 1091.69 127.735H1078.79C1078.23 127.735 1077.79 127.287 1077.79 126.735V122.338Z" fill="#31385F"/>
<path id="d866b1744b-rectangle-655-3" opacity="0.5" d="M965.711 127.735H1084.44C1084.99 127.735 1085.44 128.182 1085.44 128.735V133.132C1085.44 133.684 1084.99 134.132 1084.44 134.132H1065.58C1065.03 134.132 1064.58 133.684 1064.58 133.132V130.516C1064.58 129.971 1064.14 129.526 1063.6 129.516L965.711 127.735Z" fill="#31385F"/>
<path id="d866b1744b-rectangle-656-3" opacity="0.5" d="M1070.53 134.786C1070.53 134.234 1070.98 133.786 1071.53 133.786H1076.98C1077.54 133.786 1077.98 134.234 1077.98 134.786V139.275C1077.98 139.827 1077.54 140.275 1076.98 140.275H1071.53C1070.98 140.275 1070.53 139.827 1070.53 139.275V134.786Z" fill="#31385F"/>
<path id="d866b1744b-rectangle-658-3" opacity="0.5" d="M1068.44 141.275C1068.44 140.722 1068.88 140.275 1069.44 140.275H1072.95C1073.5 140.275 1073.95 140.722 1073.95 141.275V238.869C1073.95 239.421 1073.5 239.869 1072.95 239.869H1069.44C1068.88 239.869 1068.44 239.421 1068.44 238.869V141.275Z" fill="#31385F"/>
<g id="d866b1744b-group-1356-2">
<g id="d866b1744b-group-1347-3">
<path id="d866b1744b-rectangle-647-6" d="M915.643 141.275C915.643 140.723 916.09 140.275 916.643 140.275H931.896C932.448 140.275 932.896 140.723 932.896 141.275V238.869C932.896 239.421 932.448 239.869 931.896 239.869H916.643C916.09 239.869 915.643 239.421 915.643 238.869V191.101C915.643 190.989 915.661 190.878 915.698 190.772L916.456 188.59C916.472 188.543 916.485 188.494 916.494 188.445L917.104 185.179C917.13 185.04 917.126 184.898 917.093 184.761L915.67 178.847C915.652 178.77 915.643 178.692 915.643 178.613V141.275Z" fill="#444D7C"/>
<path id="d866b1744b-rectangle-648-6" d="M911.808 135.005C911.808 134.452 912.255 134.005 912.808 134.005H935.731C936.283 134.005 936.731 134.452 936.731 135.005V139.275C936.731 139.827 936.283 140.275 935.731 140.275H912.808C912.255 140.275 911.808 139.827 911.808 139.275V135.005Z" fill="#444D7C"/>
<path id="d866b1744b-rectangle-651-6" opacity="0.5" d="M928.471 141.183C928.471 140.631 928.925 140.183 929.477 140.183V140.183C930.03 140.183 930.484 140.631 930.484 141.183V238.961C930.484 239.513 930.03 239.961 929.477 239.961V239.961C928.925 239.961 928.471 239.513 928.471 238.961V141.183Z" fill="#31385F"/>
<path id="d866b1744b-rectangle-652-6" opacity="0.5" d="M923.525 141.275C923.525 140.723 923.98 140.275 924.532 140.275V140.275C925.084 140.275 925.539 140.723 925.539 141.275V239.053C925.539 239.605 925.084 240.053 924.532 240.053V240.053C923.98 240.053 923.525 239.605 923.525 239.053V141.275Z" fill="#31385F"/>
<path id="d866b1744b-rectangle-653-6" opacity="0.5" d="M918.581 141.275C918.581 140.723 919.035 140.275 919.587 140.275V140.275C920.139 140.275 920.594 140.723 920.594 141.275V239.053C920.594 239.605 920.139 240.053 919.587 240.053V240.053C919.035 240.053 918.581 239.605 918.581 239.053V141.275Z" fill="#31385F"/>
</g>
<path id="d866b1744b-rectangle-657-4" opacity="0.5" d="M926.504 134.977C926.504 134.424 926.952 133.977 927.504 133.977H935.814C936.366 133.977 936.814 134.424 936.814 134.977V139.275C936.814 139.827 936.366 140.275 935.814 140.275H927.504C926.952 140.275 926.504 139.827 926.504 139.275V134.977Z" fill="#31385F"/>
<path id="d866b1744b-rectangle-659-4" opacity="0.5" d="M927.579 141.275C927.579 140.722 928.027 140.275 928.579 140.275H931.896C932.448 140.275 932.896 140.722 932.896 141.275V238.843C932.896 239.395 932.448 239.843 931.896 239.843H928.579C928.027 239.843 927.579 239.395 927.579 238.843V141.275Z" fill="#31385F"/>
</g>
<g id="d866b1744b-group-1357-2" opacity="0.3">
<g id="d866b1744b-group-1347-4">
<path id="d866b1744b-rectangle-647-7" d="M993.957 141.275C993.957 140.723 994.404 140.275 994.957 140.275H1010.21C1010.76 140.275 1011.21 140.723 1011.21 141.275V238.869C1011.21 239.421 1010.76 239.869 1010.21 239.869H994.957C994.404 239.869 993.957 239.421 993.957 238.869V141.275Z" fill="#444D7C"/>
<path id="d866b1744b-rectangle-648-7" d="M990.122 135.005C990.122 134.452 990.569 134.005 991.122 134.005H1014.05C1014.6 134.005 1015.05 134.452 1015.05 135.005V139.275C1015.05 139.827 1014.6 140.275 1014.05 140.275H991.122C990.569 140.275 990.122 139.827 990.122 139.275V135.005Z" fill="#444D7C"/>
<path id="d866b1744b-rectangle-651-7" opacity="0.5" d="M1006.78 141.183C1006.78 140.631 1007.24 140.183 1007.79 140.183V140.183C1008.34 140.183 1008.8 140.631 1008.8 141.183V238.961C1008.8 239.513 1008.34 239.961 1007.79 239.961V239.961C1007.24 239.961 1006.78 239.513 1006.78 238.961V141.183Z" fill="#31385F"/>
<path id="d866b1744b-rectangle-652-7" opacity="0.5" d="M1001.84 141.275C1001.84 140.723 1002.29 140.275 1002.85 140.275V140.275C1003.4 140.275 1003.85 140.723 1003.85 141.275V239.053C1003.85 239.605 1003.4 240.053 1002.85 240.053V240.053C1002.29 240.053 1001.84 239.605 1001.84 239.053V141.275Z" fill="#31385F"/>
<path id="d866b1744b-rectangle-653-7" opacity="0.5" d="M996.895 141.275C996.895 140.723 997.349 140.275 997.901 140.275V140.275C998.453 140.275 998.908 140.723 998.908 141.275V239.053C998.908 239.605 998.453 240.053 997.901 240.053V240.053C997.349 240.053 996.895 239.605 996.895 239.053V141.275Z" fill="#31385F"/>
</g>
<path id="d866b1744b-rectangle-657-5" opacity="0.5" d="M1004.82 134.977C1004.82 134.424 1005.27 133.977 1005.82 133.977H1014.13C1014.68 133.977 1015.13 134.424 1015.13 134.977V139.275C1015.13 139.827 1014.68 140.275 1014.13 140.275H1005.82C1005.27 140.275 1004.82 139.827 1004.82 139.275V134.977Z" fill="#31385F"/>
<path id="d866b1744b-rectangle-659-5" opacity="0.5" d="M1005.89 141.275C1005.89 140.722 1006.34 140.275 1006.89 140.275H1010.21C1010.76 140.275 1011.21 140.722 1011.21 141.275V238.843C1011.21 239.395 1010.76 239.843 1010.21 239.843H1006.89C1006.34 239.843 1005.89 239.395 1005.89 238.843V141.275Z" fill="#31385F"/>
</g>
</g>
<path id="d866b1744b-fx-light" d="M936.527 239.545L982.604 -9H1009.99L1058.86 239.545H936.527Z" fill="url(#d866b1744b-paint-2-linear-3757-39690)" data-fx="{&quot;light&quot;:{}}"/>
<g id="d866b1744b-group-1363">
<path id="d866b1744b-subtract-3" d="M833.482 231.05L833.482 231.101C833.083 231.067 832.677 231.05 832.267 231.05C825.957 231.05 820.837 235.159 820.792 240.242H877.573C876.709 235.818 871.963 232.435 866.238 232.435C865.544 232.435 864.864 232.485 864.204 232.58C863.027 228.898 859.114 226.103 854.318 225.691C852.238 223.33 848.821 221.789 844.958 221.789C838.62 221.789 833.482 225.935 833.482 231.05Z" fill="#282F53"/>
<path id="d866b1744b-vector-121-3" d="M838.49 263.603L836.968 288.123L841.763 282.607V264.217C841.763 261.687 842.768 259.259 844.558 257.47C846.505 255.522 847.516 252.828 847.331 250.08L846.667 240.241H844.802V249.243C844.802 252.069 843.661 254.776 841.636 256.748C839.773 258.563 838.652 261.007 838.49 263.603Z" fill="#282F53"/>
<path id="d866b1744b-vector-122-3" d="M854.733 248.494C852.349 249.904 848.872 250.578 847.263 250.592L846.759 248.494C848.06 248.326 851.216 247.805 853.432 247.067C855.648 246.328 856.034 242.226 855.95 240.268H857.209C857.293 242.52 857.117 247.083 854.733 248.494Z" fill="#282F53"/>
<path id="d866b1744b-vector-123-3" d="M836.962 249.102C837.045 252.563 840.98 255.066 842.8 255.833L841.839 257.962C840.786 257.115 838.274 254.913 836.653 252.879C835.032 250.846 835.76 243.607 836.104 240.241H836.962C836.928 241.752 836.88 245.64 836.962 249.102Z" fill="#282F53"/>
</g>
<g id="d866b1744b-group-1373">
<path id="d866b1744b-subtract-4" d="M1141.68 198.851L1141.68 198.894C1141.34 198.865 1140.99 198.851 1140.65 198.851C1135.3 198.851 1130.95 202.335 1130.91 206.646H1179.07C1178.33 202.894 1174.31 200.025 1169.45 200.025C1168.87 200.025 1168.29 200.067 1167.73 200.148C1166.73 197.025 1163.41 194.655 1159.35 194.306C1157.58 192.304 1154.68 190.997 1151.41 190.997C1146.03 190.997 1141.68 194.513 1141.68 198.851Z" fill="#282F53"/>
<path id="d866b1744b-vector-121-4" d="M1145.92 226.457L1144.63 247.25L1148.7 242.573V226.978C1148.7 224.831 1149.55 222.773 1151.07 221.256C1152.72 219.604 1153.58 217.319 1153.42 214.989L1152.86 206.645H1151.28V214.279C1151.28 216.676 1150.31 218.971 1148.59 220.643C1147.01 222.183 1146.06 224.255 1145.92 226.457Z" fill="#282F53"/>
<path id="d866b1744b-vector-122-4" d="M1159.7 213.643C1157.68 214.839 1154.73 215.411 1153.36 215.423L1152.94 213.643C1154.04 213.501 1156.72 213.06 1158.59 212.433C1160.47 211.807 1160.8 208.328 1160.73 206.668H1161.8C1161.87 208.578 1161.72 212.448 1159.7 213.643Z" fill="#282F53"/>
<path id="d866b1744b-vector-123-4" d="M1144.63 214.159C1144.7 217.095 1148.04 219.217 1149.58 219.867L1148.76 221.673C1147.87 220.955 1145.74 219.087 1144.37 217.363C1142.99 215.639 1143.61 209.499 1143.9 206.645H1144.63C1144.6 207.926 1144.56 211.223 1144.63 214.159Z" fill="#282F53"/>
</g>
<path id="d866b1744b-vector-114" d="M855.167 267.02L820.792 301.395L1236.76 301.395V239.545L911.495 239.545C908.312 239.545 905.26 240.809 903.009 243.06L886.664 259.405C884.226 261.843 880.919 263.212 877.472 263.212H864.359C860.911 263.212 857.605 264.582 855.167 267.02Z" fill="#444D7C"/>
<g id="d866b1744b-group-1360">
<path id="d866b1744b-rectangle-624" d="M963.201 238.982C963.201 238.616 963.4 238.28 963.72 238.104L965.712 237.014C965.86 236.933 966.025 236.891 966.193 236.891H967.828C968.38 236.891 968.828 237.338 968.828 237.891V239.843H963.201V238.982Z" fill="#444D7C"/>
<path id="d866b1744b-rectangle-625" d="M972.548 239.429C972.548 239.064 972.349 238.728 972.028 238.552L970.879 237.923C970.732 237.842 970.567 237.8 970.399 237.8H969.654C969.102 237.8 968.654 238.248 968.654 238.8V239.843H972.548V239.429Z" fill="#444D7C"/>
</g>
<g id="d866b1744b-group-1361">
<path id="d866b1744b-rectangle-669-2" d="M1036.11 239.464C1036.11 239.099 1036.31 238.763 1036.63 238.587L1037.72 237.994C1037.86 237.913 1038.03 237.871 1038.2 237.871H1038.87C1039.43 237.871 1039.87 238.319 1039.87 238.871V239.843H1036.11V239.464Z" fill="#444D7C"/>
<path id="d866b1744b-rectangle-670-2" d="M1042.36 239.763C1042.36 239.398 1042.16 239.062 1041.84 238.886L1041.32 238.601C1041.17 238.521 1041 238.478 1040.84 238.478H1040.76C1040.2 238.478 1039.76 238.926 1039.76 239.478V239.843H1042.36V239.763Z" fill="#444D7C"/>
</g>
<path id="d866b1744b-vector-115" opacity="0.5" d="M1028.79 267.02L994.416 301.395H1280.43V239.545H1085.12C1081.94 239.545 1078.88 240.809 1076.63 243.06L1060.29 259.405C1057.85 261.843 1054.54 263.212 1051.1 263.212H1037.98C1034.54 263.212 1031.23 264.582 1028.79 267.02Z" fill="#30375E"/>
<g id="d866b1744b-group-1355">
<g id="d866b1744b-group-1350">
<path id="d866b1744b-rectangle-660-2" d="M882.182 292.287C882.182 291.734 882.629 291.287 883.182 291.287H949.877C950.429 291.287 950.877 291.734 950.877 292.287V295.506C950.877 296.058 950.429 296.506 949.877 296.506H883.182C882.629 296.506 882.182 296.058 882.182 295.506V292.287Z" fill="#30375E"/>
</g>
<g id="d866b1744b-group-1351">
<path id="d866b1744b-rectangle-660-3" d="M889.774 285.09C889.774 284.538 890.222 284.09 890.774 284.09H957.469C958.021 284.09 958.469 284.538 958.469 285.09V288.309C958.469 288.861 958.021 289.309 957.469 289.309H890.774C890.222 289.309 889.774 288.861 889.774 288.309V285.09Z" fill="#30375E"/>
</g>
<g id="d866b1744b-group-1352">
<path id="d866b1744b-rectangle-660-4" d="M897.366 277.893C897.366 277.341 897.814 276.893 898.366 276.893H965.061C965.614 276.893 966.061 277.341 966.061 277.893V281.112C966.061 281.665 965.614 282.112 965.061 282.112H898.366C897.814 282.112 897.366 281.665 897.366 281.112V277.893Z" fill="#30375E"/>
</g>
<g id="d866b1744b-group-1353">
<path id="d866b1744b-rectangle-660-5" d="M904.958 270.697C904.958 270.144 905.406 269.697 905.958 269.697H972.654C973.206 269.697 973.654 270.144 973.654 270.697V273.916C973.654 274.468 973.206 274.916 972.654 274.916H905.958C905.406 274.916 904.958 274.468 904.958 273.916V270.697Z" fill="#30375E"/>
</g>
<g id="d866b1744b-group-1354">
<path id="d866b1744b-rectangle-660-6" d="M912.551 263.5C912.551 262.948 912.998 262.5 913.551 262.5H980.246C980.798 262.5 981.246 262.948 981.246 263.5V266.719C981.246 267.271 980.798 267.719 980.246 267.719H913.551C912.998 267.719 912.551 267.271 912.551 266.719V263.5Z" fill="#30375E"/>
<path id="d866b1744b-rectangle-661-2" d="M942.478 256.389C942.478 255.836 942.926 255.389 943.478 255.389H1010.17C1010.73 255.389 1011.17 255.836 1011.17 256.389V259.608C1011.17 260.16 1010.73 260.608 1010.17 260.608H943.478C942.926 260.608 942.478 260.16 942.478 259.608V256.389Z" fill="#30375E"/>
<path id="d866b1744b-rectangle-662-2" d="M950.849 249.278C950.849 248.725 951.296 248.278 951.849 248.278H1018.54C1019.1 248.278 1019.54 248.725 1019.54 249.278V252.497C1019.54 253.049 1019.1 253.497 1018.54 253.497H951.849C951.296 253.497 950.849 253.049 950.849 252.497V249.278Z" fill="#30375E"/>
<path id="d866b1744b-rectangle-663-2" d="M958.219 242.167C958.219 241.614 958.667 241.167 959.219 241.167H1025.91C1026.47 241.167 1026.91 241.614 1026.91 242.167V245.386C1026.91 245.938 1026.47 246.386 1025.91 246.386H959.219C958.667 246.386 958.219 245.938 958.219 245.386V242.167Z" fill="#30375E"/>
</g>
</g>
<path id="d866b1744b-rectangle-667-2" d="M1071.44 234.763C1071.44 234.211 1071.89 233.763 1072.44 233.763H1079.42C1079.97 233.763 1080.42 234.211 1080.42 234.763V238.545C1080.42 239.097 1079.97 239.545 1079.42 239.545H1072.44C1071.89 239.545 1071.44 239.097 1071.44 238.545V234.763Z" fill="#444D7C"/>
<path id="d866b1744b-rectangle-688" d="M1156.6 234.763C1156.6 234.211 1156.15 233.763 1155.6 233.763H1148.61C1148.06 233.763 1147.61 234.211 1147.61 234.763V238.545C1147.61 239.097 1148.06 239.545 1148.61 239.545H1155.6C1156.15 239.545 1156.6 239.097 1156.6 238.545V234.763Z" fill="#444D7C"/>
<path id="d866b1744b-rectangle-668-2" d="M1070.2 230.439C1070.2 229.887 1070.65 229.439 1071.2 229.439H1075.92C1076.47 229.439 1076.92 229.887 1076.92 230.439V232.763C1076.92 233.315 1076.47 233.763 1075.92 233.763H1071.2C1070.65 233.763 1070.2 233.315 1070.2 232.763V230.439Z" fill="#444D7C"/>
<path id="d866b1744b-rectangle-689" d="M1157.84 230.439C1157.84 229.887 1157.39 229.439 1156.84 229.439H1152.12C1151.57 229.439 1151.12 229.887 1151.12 230.439V232.763C1151.12 233.315 1151.57 233.763 1152.12 233.763H1156.84C1157.39 233.763 1157.84 233.315 1157.84 232.763V230.439Z" fill="#444D7C"/>
<path id="d866b1744b-rectangle-690" d="M1148.38 237.386C1148.38 237.027 1148.08 236.736 1147.73 236.736H1144.66C1144.3 236.736 1144.01 237.027 1144.01 237.386V238.895C1144.01 239.254 1144.3 239.545 1144.66 239.545H1147.73C1148.08 239.545 1148.38 239.254 1148.38 238.895V237.386Z" fill="#444D7C"/>
<path id="d866b1744b-rectangle-691" d="M1179.07 237.386C1179.07 237.027 1178.78 236.736 1178.42 236.736H1175.35C1174.99 236.736 1174.7 237.027 1174.7 237.386V238.895C1174.7 239.254 1174.99 239.545 1175.35 239.545H1178.42C1178.78 239.545 1179.07 239.254 1179.07 238.895V237.386Z" fill="#444D7C"/>
<path id="d866b1744b-rectangle-692" d="M1176.89 234.495C1176.89 234.136 1176.59 233.845 1176.24 233.845H1173.17C1172.81 233.845 1172.52 234.136 1172.52 234.495V236.004C1172.52 236.363 1172.81 236.654 1173.17 236.654H1176.24C1176.59 236.654 1176.89 236.363 1176.89 236.004V234.495Z" fill="#444D7C"/>
<g id="d866b1744b-group-1359">
<path id="d866b1744b-vector-118" d="M1052.21 112.557L1057.52 116.048L1060.38 117.837C1060.38 117.837 1054.88 117.837 1054.66 117.837C1051.16 117.837 1049.71 115.379 1049.41 114.085L1047.28 112.383H1048.45L1048.96 111.69C1049.23 111.317 1049.66 111.095 1050.12 111.095H1050.76C1051.56 111.095 1052.21 111.743 1052.21 112.541V112.557Z" fill="#202747"/>
<path id="d866b1744b-vector-119" d="M1054.34 121.338V117.387H1053.83L1054.06 121.338H1054.34Z" fill="#202747"/>
<path id="d866b1744b-vector-120" d="M1055.33 121.338V117.387H1054.82L1055.06 121.338H1055.33Z" fill="#202747"/>
</g>
<g id="d866b1744b-group-1366">
<path id="d866b1744b-vector-118-2" d="M866.979 226.782L870.943 229.39L873.08 230.726C873.08 230.726 868.971 230.726 868.807 230.726C866.195 230.726 865.108 228.89 864.89 227.923L863.292 226.651H864.17L864.547 226.134C864.75 225.855 865.075 225.689 865.42 225.689H865.899C866.496 225.689 866.979 226.173 866.979 226.77V226.782Z" fill="#282F53"/>
<path id="d866b1744b-vector-119-2" d="M868.567 233.341V230.39H868.186L868.364 233.341H868.567Z" fill="#282F53"/>
<path id="d866b1744b-vector-120-2" d="M869.312 233.341V230.39H868.93L869.108 233.341H869.312Z" fill="#282F53"/>
</g>
<path id="d866b1744b-rectangle-671" d="M1064.7 294.664C1064.7 294.112 1065.15 293.664 1065.7 293.664H1074.93C1075.48 293.664 1075.93 294.112 1075.93 294.664V299C1075.93 299.552 1075.48 300 1074.93 300H1065.7C1065.15 300 1064.7 299.552 1064.7 299V294.664Z" fill="#444D7C"/>
<path id="d866b1744b-rectangle-672" d="M1070.83 291.187C1070.83 290.635 1071.28 290.187 1071.83 290.187H1076.23C1076.79 290.187 1077.23 290.635 1077.23 291.187V292.664C1077.23 293.216 1076.79 293.664 1076.23 293.664H1071.83C1071.28 293.664 1070.83 293.216 1070.83 292.664V291.187Z" fill="#444D7C"/>
<g id="d866b1744b-group-1356-3">
<g id="d866b1744b-group-1347-5">
<path id="d866b1744b-rectangle-647-8" d="M1043.83 286.222C1043.64 285.704 1043.91 285.128 1044.42 284.937L1060.03 279.166C1060.55 278.975 1061.12 279.239 1061.31 279.757L1087.57 350.75C1087.76 351.268 1087.49 351.843 1086.97 352.034L1071.37 357.805C1070.85 357.997 1070.28 357.732 1070.08 357.214L1057.27 322.561C1057.22 322.42 1057.2 322.269 1057.21 322.12L1057.38 320.365C1057.38 320.3 1057.38 320.235 1057.38 320.17L1057.13 317.716C1057.11 317.524 1057.03 317.342 1056.91 317.191L1053.99 313.547C1053.92 313.463 1053.87 313.369 1053.83 313.268L1048.18 297.985C1048.05 297.64 1048.28 297.265 1048.64 297.216V297.216C1049.11 297.153 1049.31 296.589 1048.98 296.25L1046.77 293.936C1046.68 293.837 1046.61 293.72 1046.56 293.592L1043.83 286.222Z" fill="#596396"/>
<path id="d866b1744b-rectangle-648-8" d="M1038.25 283.071C1038.06 282.553 1038.32 281.978 1038.84 281.786L1041.34 280.861C1041.44 280.825 1041.54 280.804 1041.65 280.8L1043.62 280.713C1043.96 280.698 1044.27 280.479 1044.4 280.156V280.156C1044.48 279.944 1044.64 279.773 1044.85 279.678L1046.13 279.091L1062.22 273.142C1062.74 272.95 1063.31 273.215 1063.5 273.733L1064.51 276.445C1064.7 276.963 1064.43 277.538 1063.92 277.729L1040.54 286.374C1040.02 286.565 1039.44 286.3 1039.25 285.782L1038.25 283.071Z" fill="#596396"/>
<path id="d866b1744b-rectangle-651-8" opacity="0.5" d="M1056.81 281.348C1056.61 280.83 1056.88 280.255 1057.4 280.063L1057.56 280.003C1058.08 279.811 1058.65 280.076 1058.85 280.594L1085.15 351.721C1085.34 352.239 1085.07 352.814 1084.55 353.005L1084.39 353.066C1083.87 353.258 1083.3 352.993 1083.11 352.475L1056.81 281.348Z" fill="#31385F"/>
<path id="d866b1744b-rectangle-652-8" opacity="0.5" d="M1051.82 283.268C1051.63 282.75 1051.89 282.175 1052.41 281.983L1052.58 281.923C1053.09 281.731 1053.67 281.996 1053.86 282.514L1080.16 353.641C1080.35 354.159 1080.09 354.734 1079.57 354.925L1079.41 354.986C1078.89 355.178 1078.31 354.913 1078.12 354.395L1051.82 283.268Z" fill="#31385F"/>
<path id="d866b1744b-rectangle-653-8" opacity="0.5" d="M1046.81 285.121C1046.62 284.603 1046.88 284.028 1047.4 283.836L1047.56 283.776C1048.08 283.584 1048.66 283.849 1048.85 284.367L1075.15 355.493C1075.34 356.011 1075.08 356.587 1074.56 356.778L1074.39 356.839C1073.88 357.03 1073.3 356.766 1073.11 356.248L1046.81 285.121Z" fill="#31385F"/>
</g>
<path id="d866b1744b-rectangle-657-6" opacity="0.5" d="M1053.13 277.544C1052.94 277.026 1053.21 276.451 1053.72 276.26L1062.3 273.09C1062.81 272.899 1063.39 273.163 1063.58 273.681L1064.59 276.414C1064.78 276.932 1064.52 277.507 1064 277.698L1055.43 280.868C1054.91 281.059 1054.34 280.794 1054.14 280.276L1053.13 277.544Z" fill="#31385F"/>
<path id="d866b1744b-rectangle-659-6" opacity="0.5" d="M1055.93 281.749C1055.74 281.231 1056 280.656 1056.52 280.465L1060.03 279.166C1060.55 278.975 1061.12 279.239 1061.31 279.757L1087.56 350.731C1087.75 351.249 1087.49 351.824 1086.97 352.015L1083.46 353.314C1082.94 353.505 1082.36 353.241 1082.17 352.723L1055.93 281.749Z" fill="#31385F"/>
</g>
<g id="d866b1744b-group-1372">
<g id="d866b1744b-group-1347-6">
<path id="d866b1744b-rectangle-647-9" d="M1133.62 253.91C1133.79 253.505 1134.26 253.315 1134.66 253.487L1146.88 258.669C1147.29 258.841 1147.48 259.309 1147.3 259.715L1123.73 315.301C1123.56 315.707 1123.09 315.896 1122.69 315.724L1110.47 310.543C1110.06 310.371 1109.87 309.903 1110.04 309.497L1121.55 282.364C1121.6 282.253 1121.67 282.155 1121.76 282.076L1122.81 281.147C1122.85 281.113 1122.89 281.075 1122.92 281.034L1124.12 279.472C1124.21 279.35 1124.27 279.203 1124.28 279.05L1124.57 275.336C1124.58 275.251 1124.6 275.167 1124.64 275.088L1129.71 263.121C1129.82 262.851 1130.16 262.756 1130.4 262.927V262.927C1130.7 263.145 1131.13 262.925 1131.12 262.551L1131.11 259.999C1131.1 259.89 1131.13 259.782 1131.17 259.681L1133.62 253.91Z" fill="#596396"/>
<path id="d866b1744b-rectangle-648-9" d="M1132.1 249.028C1132.27 248.622 1132.74 248.433 1133.14 248.605L1135.1 249.436C1135.18 249.468 1135.25 249.512 1135.31 249.566L1136.5 250.593C1136.71 250.774 1137.01 250.814 1137.26 250.695V250.695C1137.42 250.618 1137.61 250.607 1137.78 250.665L1138.85 251.025L1151.45 256.367C1151.85 256.539 1152.04 257.007 1151.87 257.413L1150.97 259.536C1150.8 259.942 1150.33 260.131 1149.92 259.959L1131.62 252.197C1131.21 252.025 1131.02 251.557 1131.2 251.151L1132.1 249.028Z" fill="#596396"/>
<path id="d866b1744b-rectangle-651-9" opacity="0.5" d="M1143.82 258.173C1143.99 257.768 1144.46 257.578 1144.86 257.75L1144.99 257.805C1145.39 257.977 1145.58 258.445 1145.41 258.851L1121.8 314.543C1121.62 314.948 1121.16 315.138 1120.75 314.966L1120.62 314.911C1120.22 314.739 1120.03 314.271 1120.2 313.865L1143.82 258.173Z" fill="#31385F"/>
<path id="d866b1744b-rectangle-652-9" opacity="0.5" d="M1139.87 256.562C1140.04 256.157 1140.51 255.967 1140.92 256.139L1141.04 256.194C1141.45 256.366 1141.64 256.834 1141.47 257.24L1117.85 312.932C1117.68 313.337 1117.21 313.527 1116.8 313.355L1116.68 313.3C1116.27 313.128 1116.08 312.66 1116.25 312.254L1139.87 256.562Z" fill="#31385F"/>
<path id="d866b1744b-rectangle-653-9" opacity="0.5" d="M1135.95 254.899C1136.12 254.493 1136.59 254.304 1136.99 254.476L1137.12 254.53C1137.53 254.702 1137.72 255.17 1137.54 255.576L1113.93 311.268C1113.75 311.673 1113.29 311.863 1112.88 311.691L1112.75 311.636C1112.35 311.464 1112.16 310.996 1112.33 310.591L1135.95 254.899Z" fill="#31385F"/>
</g>
<path id="d866b1744b-rectangle-657-7" opacity="0.5" d="M1143.76 253.956C1143.93 253.551 1144.4 253.361 1144.81 253.533L1151.52 256.379C1151.92 256.551 1152.11 257.019 1151.94 257.425L1151.03 259.564C1150.86 259.97 1150.39 260.159 1149.99 259.987L1143.28 257.141C1142.87 256.969 1142.68 256.501 1142.86 256.095L1143.76 253.956Z" fill="#31385F"/>
<path id="d866b1744b-rectangle-659-7" opacity="0.5" d="M1143.09 257.926C1143.26 257.52 1143.73 257.331 1144.13 257.503L1146.88 258.669C1147.29 258.841 1147.48 259.309 1147.3 259.715L1123.74 315.286C1123.57 315.692 1123.1 315.881 1122.69 315.709L1119.94 314.544C1119.54 314.372 1119.35 313.903 1119.52 313.498L1143.09 257.926Z" fill="#31385F"/>
</g>
<path id="d866b1744b-rectangle-673" d="M818.584 284.133H829.538V300H818.584V284.133Z" fill="#444D7C"/>
<path id="d866b1744b-rectangle-674" d="M815.835 281.019H832.288V284.133H815.835V281.019Z" fill="#444D7C"/>
<path id="d866b1744b-rectangle-675" d="M825.835 280.949H832.448V284.133H825.835V280.949Z" fill="#3A426D"/>
<g id="d866b1744b-chest-fx-light-shadow-3-c-4471" data-fx="{&quot;light&quot;:{&quot;shadow&quot;:&quot;#333A61&quot;}}">
<path id="d866b1744b-vector-129" d="M1016.09 214.417V210.731H1012.95L1014.77 214.417H1016.09Z" fill="#D0A945"/>
<g id="d866b1744b-bg-fx-parallax-back-amount-8" data-fx="{&quot;parallax&quot;:{&quot;back&quot;:true,&quot;amount&quot;:8}}">
<path id="d866b1744b-rectangle-695" d="M1001.75 193.273H1016.09V210.753H1001.75V193.273Z" fill="#D0A945"/>
<path id="d866b1744b-rectangle-694" d="M979.516 193.273H1004.55V210.753H979.516V193.273Z" fill="#FFD770"/>
<path id="d866b1744b-vector-127" d="M979.516 214.417V210.731H982.655L980.835 214.417H979.516Z" fill="#FFD770"/>
<path id="d866b1744b-vector-128" d="M1004.55 214.417V210.731H1001.41L1003.23 214.417H1004.55Z" fill="#FFD770"/>
<path id="d866b1744b-vector-130" d="M995.171 214.417V210.731H992.032L993.852 214.417H995.171Z" fill="#D0A945"/>
<path id="d866b1744b-rectangle-696" d="M977.412 190.625H1017.86V193.273H977.412V190.625Z" fill="#FFD770"/>
<path id="d866b1744b-rectangle-697" d="M975.325 187.976H1020V190.625H975.325V187.976Z" fill="#FFD770"/>
<path id="d866b1744b-rectangle-698" d="M1002.65 190.472H1017.91V193.274H1002.65V190.472Z" fill="#D0A945"/>
<path id="d866b1744b-rectangle-699" d="M1004.8 187.976H1020.06V190.625H1004.8V187.976Z" fill="#D0A945"/>
<path id="d866b1744b-rectangle-700-stroke" fill-rule="evenodd" clip-rule="evenodd" d="M1000.63 196.519H983.431V208.091H1000.63V196.519ZM982.431 195.519V209.091H1001.63V195.519H982.431Z" fill="#D0A945"/>
<path id="d866b1744b-rectangle-701-stroke" fill-rule="evenodd" clip-rule="evenodd" d="M997.308 199.312H986.757V205.298H997.308V199.312ZM985.757 198.312V206.298H998.308V198.312H985.757Z" fill="#D0A945"/>
<path id="d866b1744b-union" fill-rule="evenodd" clip-rule="evenodd" d="M992.464 202.708C992.903 202.536 993.213 202.108 993.213 201.609C993.213 200.956 992.685 200.427 992.032 200.427C991.38 200.427 990.851 200.956 990.851 201.609C990.851 202.114 991.169 202.545 991.615 202.714L991.317 204.183H992.747L992.464 202.708Z" fill="#D0A945"/>
<path id="d866b1744b-rectangle-702" d="M975.325 187.976H980.683V190.625H975.325V187.976Z" fill="#FFE8AC"/>
<path id="d866b1744b-rectangle-703" d="M977.297 190.549H986.407V193.274H977.297V190.549Z" fill="#FFE8AC"/>
<path id="d866b1744b-rectangle-704" d="M979.516 193.273H981.128V209.091H979.516V193.273Z" fill="#FFE8AC"/>
</g>
<g id="d866b1744b-group-1370">
<g id="d866b1744b-group-1367">
<path id="d866b1744b-rectangle-688-2" d="M960.504 216.535H1034.79V241.545H960.504V216.535Z" fill="#444D7C"/>
<path id="d866b1744b-rectangle-689-2" d="M957.272 216.478H1038.02V220.392H957.272V216.478Z" fill="#444D7C"/>
<path id="d866b1744b-rectangle-690-2" d="M1012.4 216.417H1038.12V221.124H1012.4V216.417Z" fill="#30375E"/>
<path id="d866b1744b-rectangle-691-2" d="M1005.34 221.124H1034.79V241.147H1009.39V222.756L1005.34 221.124Z" fill="#30375E"/>
</g>
<path id="d866b1744b-rectangle-693-stroke" fill-rule="evenodd" clip-rule="evenodd" d="M1000.65 224.313H965.257V237.213H1000.65V224.313ZM963.92 222.977V238.549H1001.99V222.977H963.92Z" fill="#3A436D"/>
<path id="d866b1744b-ellipse-16-stroke" fill-rule="evenodd" clip-rule="evenodd" d="M982.955 233.344C984.38 233.344 985.536 232.188 985.536 230.763C985.536 229.338 984.38 228.182 982.955 228.182C981.53 228.182 980.374 229.338 980.374 230.763C980.374 232.188 981.53 233.344 982.955 233.344ZM982.955 234.68C985.118 234.68 986.872 232.926 986.872 230.763C986.872 228.6 985.118 226.846 982.955 226.846C980.792 226.846 979.038 228.6 979.038 230.763C979.038 232.926 980.792 234.68 982.955 234.68Z" fill="#3A436D"/>
</g>
</g>
</g>
<g id="d866b1744b-fxg-sparkle-delay-0-8-fx-light" data-fx="{&quot;light&quot;:{}}">
<path id="d866b1744b-star-8" d="M1014.32 184.429L1015.41 186.883L1017.86 187.976L1015.41 189.07L1014.32 191.524L1013.22 189.07L1010.77 187.976L1013.22 186.883L1014.32 184.429Z" fill="white" data-fx="{&quot;sparkle&quot;:{&quot;delay&quot;:0.8}}"/>
<path id="d866b1744b-star-9" d="M979.268 200.19L979.876 201.554L981.24 202.162L979.876 202.77L979.268 204.134L978.661 202.77L977.297 202.162L978.661 201.554L979.268 200.19Z" fill="white" data-fx="{&quot;sparkle&quot;:{&quot;delay&quot;:0.8}}"/>
<path id="d866b1744b-star-10" d="M1012.4 155.101L1013.24 156.987L1015.13 157.827L1013.24 158.668L1012.4 160.554L1011.56 158.668L1009.68 157.827L1011.56 156.987L1012.4 155.101Z" fill="white" data-fx="{&quot;sparkle&quot;:{&quot;delay&quot;:0.8}}"/>
<path id="d866b1744b-star-15" d="M1003.73 73L1004.57 74.8857L1006.45 75.7262L1004.57 76.5667L1003.73 78.4524L1002.89 76.5667L1001 75.7262L1002.89 74.8857L1003.73 73Z" fill="white" data-fx="{&quot;sparkle&quot;:{&quot;delay&quot;:0.8}}"/>
<path id="d866b1744b-star-16" d="M990.5 41L990.962 42.0376L992 42.5L990.962 42.9624L990.5 44L990.038 42.9624L989 42.5L990.038 42.0376L990.5 41Z" fill="white" data-fx="{&quot;sparkle&quot;:{&quot;delay&quot;:0.8}}"/>
<path id="d866b1744b-star-12" d="M961.056 199.78L961.717 201.263L963.201 201.924L961.717 202.586L961.056 204.069L960.395 202.586L958.911 201.924L960.395 201.263L961.056 199.78Z" fill="white" data-fx="{&quot;sparkle&quot;:{&quot;delay&quot;:0.8}}"/>
<path id="d866b1744b-star-13" d="M1038.12 202.643L1038.67 203.88L1039.91 204.432L1038.67 204.983L1038.12 206.221L1037.56 204.983L1036.33 204.432L1037.56 203.88L1038.12 202.643Z" fill="white" data-fx="{&quot;sparkle&quot;:{&quot;delay&quot;:0.8}}"/>
<path id="d866b1744b-star-11" d="M975.476 162.311L976.129 163.776L977.594 164.429L976.129 165.082L975.476 166.546L974.823 165.082L973.358 164.429L974.823 163.776L975.476 162.311Z" fill="white" data-fx="{&quot;sparkle&quot;:{&quot;delay&quot;:0.8}}"/>
<path id="d866b1744b-star-14" d="M985.326 122.308L985.878 123.545L987.115 124.097L985.878 124.648L985.326 125.886L984.775 124.648L983.537 124.097L984.775 123.545L985.326 122.308Z" fill="white" data-fx="{&quot;sparkle&quot;:{&quot;delay&quot;:0.8}}"/>
</g>
<g id="d866b1744b-group-2722">
<g id="d866b1744b-group-1358">
<path id="d866b1744b-vector-118-3" d="M780.145 140.139L770.081 146.76L764.657 150.154C764.657 150.154 775.088 150.154 775.504 150.154C782.136 150.154 784.895 145.491 785.448 143.036L789.505 139.808H787.276L786.319 138.495C785.803 137.786 784.979 137.367 784.103 137.367H782.887C781.372 137.367 780.145 138.594 780.145 140.109V140.139Z" fill="#202747"/>
<path id="d866b1744b-vector-119-3" d="M776.112 156.793V149.299H777.081L776.629 156.793H776.112Z" fill="#202747"/>
<path id="d866b1744b-vector-120-3" d="M774.222 156.793V149.299H775.191L774.738 156.793H774.222Z" fill="#202747"/>
</g>
<path id="d866b1744b-vector-124" d="M749.044 262.951L751.044 234.964L741.436 243.833L743.611 251.304L745.611 244.712L749.044 262.951Z" fill="#202747"/>
<path id="d866b1744b-vector-125" d="M700.82 287.22L699.544 269.369H706.385L704.285 279.792L703.009 275.586L700.82 287.22Z" fill="#202747"/>
<path id="d866b1744b-vector-126" d="M791.65 234.964L793.029 211.729L786.085 217.112L788.185 227.535L789.461 223.33L791.65 234.964Z" fill="#202747"/>
<g id="d866b1744b-group-2721">
<path id="d866b1744b-rectangle-648-10" d="M756.741 197.23C756.741 196.678 757.189 196.23 757.741 196.23H772.412C772.964 196.23 773.412 196.678 773.412 197.23V201.5C773.412 202.052 772.964 202.5 772.412 202.5H757.741C757.189 202.5 756.741 202.052 756.741 201.5V197.23Z" fill="#30375E"/>
<path id="d866b1744b-rectangle-681" d="M651.18 285.085C651.18 284.533 651.627 284.085 652.18 284.085H666.85C667.403 284.085 667.85 284.533 667.85 285.085V289.356C667.85 289.908 667.403 290.356 666.85 290.356H652.18C651.627 290.356 651.18 289.908 651.18 289.356V285.085Z" fill="#30375E"/>
<path id="d866b1744b-rectangle-682" d="M661.242 277.202C661.242 276.65 661.69 276.202 662.242 276.202H670.788C671.341 276.202 671.788 276.65 671.788 277.202V281.472C671.788 282.025 671.341 282.472 670.788 282.472H662.242C661.69 282.472 661.242 282.025 661.242 281.472V277.202Z" fill="#30375E"/>
<path id="d866b1744b-rectangle-683" d="M651.18 278.825C651.18 278.273 651.627 277.825 652.18 277.825H657.996C658.549 277.825 658.996 278.273 658.996 278.825V281.472C658.996 282.025 658.549 282.472 657.996 282.472H652.18C651.627 282.472 651.18 282.025 651.18 281.472V278.825Z" fill="#30375E"/>
<path id="d866b1744b-rectangle-676" d="M751.787 189.873C751.787 189.321 752.234 188.873 752.787 188.873H763.404C763.956 188.873 764.404 189.321 764.404 189.873V194.144C764.404 194.696 763.956 195.144 763.404 195.144H752.787C752.234 195.144 751.787 194.696 751.787 194.144V189.873Z" fill="#30375E"/>
<path id="d866b1744b-rectangle-677" d="M765.934 192.261C765.934 191.709 766.381 191.261 766.934 191.261H772.746C773.298 191.261 773.746 191.709 773.746 192.261V194.144C773.746 194.696 773.298 195.144 772.746 195.144H766.934C766.381 195.144 765.934 194.696 765.934 194.144V192.261Z" fill="#30375E"/>
<path id="d866b1744b-rectangle-684" d="M713.256 235C713.256 234.447 713.704 234 714.256 234H720.068C720.621 234 721.068 234.447 721.068 235V236.882C721.068 237.434 720.621 237.882 720.068 237.882H714.256C713.704 237.882 713.256 237.434 713.256 236.882V235Z" fill="#30375E"/>
<path id="d866b1744b-rectangle-685" d="M709.817 230.735C709.817 230.183 710.265 229.735 710.817 229.735H714.602C715.154 229.735 715.602 230.183 715.602 230.735V231.61C715.602 232.162 715.154 232.61 714.602 232.61H710.817C710.265 232.61 709.817 232.162 709.817 231.61V230.735Z" fill="#30375E"/>
<path id="d866b1744b-rectangle-686" d="M706.926 122.464C706.926 121.912 707.373 121.464 707.926 121.464H711.71C712.262 121.464 712.71 121.912 712.71 122.464V123.339C712.71 123.891 712.262 124.339 711.71 124.339H707.926C707.373 124.339 706.926 123.891 706.926 123.339V122.464Z" fill="#30375E"/>
<path id="d866b1744b-rectangle-687" d="M703.049 126.042C703.049 125.49 703.497 125.042 704.049 125.042H711.142C711.695 125.042 712.142 125.49 712.142 126.042V126.917C712.142 127.469 711.695 127.917 711.142 127.917H704.049C703.497 127.917 703.049 127.469 703.049 126.917V126.042Z" fill="#30375E"/>
<path id="d866b1744b-rectangle-678" d="M735.69 154.046C735.69 153.494 736.138 153.046 736.69 153.046H742.503C743.055 153.046 743.503 153.494 743.503 154.046V155.929C743.503 156.481 743.055 156.929 742.503 156.929H736.69C736.138 156.929 735.69 156.481 735.69 155.929V154.046Z" fill="#30375E"/>
<path id="d866b1744b-rectangle-693" d="M694.702 46C694.702 45.4477 695.15 45 695.702 45H701.515C702.067 45 702.515 45.4477 702.515 46V47.8825C702.515 48.4348 702.067 48.8825 701.515 48.8825H695.702C695.15 48.8825 694.702 48.4348 694.702 47.8825V46Z" fill="#30375E"/>
<path id="d866b1744b-rectangle-680" d="M725.988 154.046C725.988 153.494 726.436 153.046 726.988 153.046H732.801C733.353 153.046 733.801 153.494 733.801 154.046V155.929C733.801 156.481 733.353 156.929 732.801 156.929H726.988C726.436 156.929 725.988 156.481 725.988 155.929V154.046Z" fill="#30375E"/>
<path id="d866b1744b-rectangle-694-2" d="M691 59C691 58.4477 691.448 58 692 58H697.813C698.365 58 698.813 58.4477 698.813 59V60.8825C698.813 61.4348 698.365 61.8825 697.813 61.8825H692C691.448 61.8825 691 61.4348 691 60.8825V59Z" fill="#30375E"/>
<path id="d866b1744b-rectangle-679" d="M725.988 149.213C725.988 148.66 726.436 148.213 726.988 148.213H739.71C740.262 148.213 740.71 148.66 740.71 149.213V151.095C740.71 151.647 740.262 152.095 739.71 152.095H726.988C726.436 152.095 725.988 151.647 725.988 151.095V149.213Z" fill="#30375E"/>
</g>
</g>
</g>
</g>
</g>
<defs>
<linearGradient id="d866b1744b-paint-0-linear-3757-39690" x1="470.252" y1="-24.2858" x2="1025.66" y2="184.921" gradientUnits="userSpaceOnUse">
<stop stop-color="#404773"/>
<stop offset="1" stop-color="#30375E"/>
</linearGradient>
<linearGradient id="d866b1744b-paint-1-linear-3757-39690" x1="470.252" y1="-24.2861" x2="1406.72" y2="255.266" gradientUnits="userSpaceOnUse">
<stop stop-color="#404773"/>
<stop offset="1" stop-color="#30375E"/>
</linearGradient>
<linearGradient id="d866b1744b-paint-2-linear-3757-39690" x1="997.695" y1="-8.40022" x2="997.695" y2="247.686" gradientUnits="userSpaceOnUse">
<stop offset="0.196998" stop-color="#FFD770" stop-opacity="0"/>
<stop offset="0.661458" stop-color="#FFD770" stop-opacity="0.351392"/>
<stop offset="1" stop-color="#FFD770"/>
</linearGradient>
<clipPath id="d866b1744b-clip-0-3757-39690">
<rect width="1198" height="300" rx="14" fill="white"/>
</clipPath>
</defs>
</svg>