<svg xmlns="http://www.w3.org/2000/svg" width="380" height="300" 
viewBox="0 0 380 300" fill="none">
<g id="117f8da54a-privacy-introduction-to-personal-data">
<g id="117f8da54a-privacy-introduction-to-personal-data-2">
<path id="117f8da54a-fx-wobble" d="M189.5 274C148.397 274 112.953 262.98 94.4868 244.513C76.0203 226.047 65 190.603 65 149.5C65 108.397 76.0203 72.9533 94.4868 54.4868C112.953 36.0203 148.397 25 189.5 25C230.603 25 266.047 36.0203 284.513 54.4868C302.98 72.9533 314 108.397 314 149.5C314 190.603 302.98 226.047 284.513 244.513C266.047 262.98 230.603 274 189.5 274Z" fill="#567FEE" data-fx="{&quot;wobble&quot;:{}}"/>
<g id="117f8da54a-fxg-sparkle">
<path id="117f8da54a-vector" d="M332.339 257.151L333.663 253.942C333.735 253.758 333.861 253.6 334.025 253.488C334.189 253.377 334.382 253.317 334.58 253.317C334.778 253.317 334.971 253.377 335.135 253.488C335.298 253.6 335.424 253.758 335.497 253.942L336.821 257.151C336.929 257.389 337.123 257.576 337.364 257.677L340.555 259.018C340.734 259.093 340.887 259.219 340.995 259.381C341.102 259.543 341.16 259.732 341.16 259.926C341.16 260.121 341.102 260.31 340.995 260.472C340.887 260.633 340.734 260.76 340.555 260.835L337.364 262.176C337.123 262.276 336.929 262.464 336.821 262.702L335.497 265.91C335.418 266.088 335.29 266.24 335.127 266.346C334.964 266.452 334.774 266.509 334.58 266.509C334.386 266.509 334.195 266.452 334.033 266.346C333.87 266.24 333.741 266.088 333.663 265.91L332.339 262.702C332.231 262.464 332.037 262.276 331.796 262.176L328.604 260.835C328.425 260.76 328.272 260.633 328.165 260.472C328.057 260.31 328 260.121 328 259.926C328 259.732 328.057 259.543 328.165 259.381C328.272 259.219 328.425 259.093 328.604 259.018L331.796 257.677C332.037 257.576 332.231 257.389 332.339 257.151Z" fill="white" data-fx="{&quot;sparkle&quot;:{}}"/>
<path id="117f8da54a-vector-2" d="M351.827 230.346C353.027 230.346 354 229.373 354 228.173C354 226.973 353.027 226 351.827 226C350.627 226 349.654 226.973 349.654 228.173C349.654 229.373 350.627 230.346 351.827 230.346Z" fill="#FBF9F9" data-fx="{&quot;sparkle&quot;:{}}"/>
<path id="117f8da54a-vector-3" d="M34.7855 49.2283L36.246 45.6896C36.3257 45.4864 36.4647 45.3118 36.645 45.1888C36.8254 45.0658 37.0387 45 37.257 45C37.4753 45 37.6886 45.0658 37.8689 45.1888C38.0493 45.3118 38.1884 45.4864 38.2681 45.6896L39.7284 49.2283C39.8478 49.4903 40.0618 49.6976 40.3276 49.8087L43.8475 51.2878C44.045 51.3705 44.2136 51.5096 44.3322 51.6879C44.4508 51.8661 44.5141 52.0754 44.5141 52.2895C44.5141 52.5035 44.4508 52.7128 44.3322 52.891C44.2136 53.0693 44.045 53.2084 43.8475 53.2911L40.3276 54.7702C40.0618 54.8813 39.8478 55.0886 39.7284 55.3507L38.2681 58.8893C38.1817 59.0855 38.0401 59.2523 37.8606 59.3694C37.6811 59.4865 37.4713 59.5489 37.257 59.5489C37.0426 59.5489 36.8329 59.4865 36.6534 59.3694C36.4739 59.2523 36.3323 59.0855 36.246 58.8893L34.7855 55.3507C34.6662 55.0886 34.4521 54.8813 34.1864 54.7702L30.6666 53.2911C30.4691 53.2084 30.3004 53.0693 30.1818 52.891C30.0632 52.7128 30 52.5035 30 52.2895C30 52.0754 30.0632 51.8661 30.1818 51.6879C30.3004 51.5096 30.4691 51.3705 30.6666 51.2878L34.1864 49.8087C34.4521 49.6976 34.6662 49.4903 34.7855 49.2283Z" fill="white" data-fx="{&quot;sparkle&quot;:{}}"/>
<path id="117f8da54a-vector-4" d="M86.7855 22.2283L88.246 18.6896C88.3257 18.4864 88.4647 18.3118 88.645 18.1888C88.8254 18.0658 89.0387 18 89.257 18C89.4753 18 89.6886 18.0658 89.8689 18.1888C90.0493 18.3118 90.1884 18.4864 90.2681 18.6896L91.7284 22.2283C91.8478 22.4903 92.0618 22.6976 92.3276 22.8087L95.8475 24.2878C96.045 24.3705 96.2136 24.5096 96.3322 24.6879C96.4508 24.8661 96.5141 25.0754 96.5141 25.2895C96.5141 25.5035 96.4508 25.7128 96.3322 25.891C96.2136 26.0693 96.045 26.2084 95.8475 26.2911L92.3276 27.7702C92.0618 27.8813 91.8478 28.0886 91.7284 28.3507L90.2681 31.8893C90.1817 32.0855 90.0401 32.2523 89.8606 32.3694C89.6811 32.4865 89.4713 32.5489 89.257 32.5489C89.0426 32.5489 88.8329 32.4865 88.6534 32.3694C88.4739 32.2523 88.3323 32.0855 88.246 31.8893L86.7855 28.3507C86.6662 28.0886 86.4521 27.8813 86.1864 27.7702L82.6666 26.2911C82.4691 26.2084 82.3004 26.0693 82.1818 25.891C82.0632 25.7128 82 25.5035 82 25.2895C82 25.0754 82.0632 24.8661 82.1818 24.6879C82.3004 24.5096 82.4691 24.3705 82.6666 24.2878L86.1864 22.8087C86.4521 22.6976 86.6662 22.4903 86.7855 22.2283Z" fill="white" data-fx="{&quot;sparkle&quot;:{}}"/>
<path id="117f8da54a-vector-5" d="M332.786 64.2283L334.246 60.6896C334.326 60.4864 334.465 60.3118 334.645 60.1888C334.825 60.0658 335.039 60 335.257 60C335.475 60 335.689 60.0658 335.869 60.1888C336.049 60.3118 336.188 60.4864 336.268 60.6896L337.728 64.2283C337.848 64.4903 338.062 64.6976 338.328 64.8087L341.848 66.2878C342.045 66.3705 342.214 66.5096 342.332 66.6879C342.451 66.8661 342.514 67.0754 342.514 67.2895C342.514 67.5035 342.451 67.7128 342.332 67.891C342.214 68.0693 342.045 68.2084 341.848 68.2911L338.328 69.7702C338.062 69.8813 337.848 70.0886 337.728 70.3507L336.268 73.8893C336.182 74.0855 336.04 74.2523 335.861 74.3694C335.681 74.4865 335.471 74.5489 335.257 74.5489C335.043 74.5489 334.833 74.4865 334.653 74.3694C334.474 74.2523 334.332 74.0855 334.246 73.8893L332.786 70.3507C332.666 70.0886 332.452 69.8813 332.186 69.7702L328.667 68.2911C328.469 68.2084 328.3 68.0693 328.182 67.891C328.063 67.7128 328 67.5035 328 67.2895C328 67.0754 328.063 66.8661 328.182 66.6879C328.3 66.5096 328.469 66.3705 328.667 66.2878L332.186 64.8087C332.452 64.6976 332.666 64.4903 332.786 64.2283Z" fill="white" data-fx="{&quot;sparkle&quot;:{}}"/>
<path id="117f8da54a-vector-6" d="M27.3965 22.7931C28.7201 22.7931 29.793 21.7201 29.793 20.3966C29.793 19.073 28.7201 18 27.3965 18C26.073 18 25 19.073 25 20.3966C25 21.7201 26.073 22.7931 27.3965 22.7931Z" fill="#FBF9F9" data-fx="{&quot;sparkle&quot;:{}}"/>
</g>
<g id="117f8da54a-main-fx-tween-y-20-ease-in" filter="url(#117f8da54a-filter-0-d-1961-81058)" data-fx="{&quot;tween&quot;:{&quot;y&quot;:-20,&quot;ease&quot;:&quot;in&quot;}}">
<rect id="117f8da54a-rectangle-709" x="45" y="107.308" width="231.826" height="142.136" rx="8" transform="rotate(-4.65801 45 107.308)" fill="#F4F5F7"/>
<path id="117f8da54a-rectangle-711" d="M54.3823 222.459L285.442 203.633L286.953 222.175C287.312 226.578 284.033 230.439 279.629 230.798L64.5163 248.325C60.1126 248.683 56.2518 245.404 55.893 241.001L54.3823 222.459Z" fill="#4AE1CF"/>
<rect id="117f8da54a-rectangle-710" x="60.937" y="125.075" width="57.7664" height="70.6878" rx="3" transform="rotate(-4.65801 60.937 125.075)" fill="#DEE8F7"/>
<path id="117f8da54a-vector-266" d="M147.751 188.028C147.556 190.889 146.861 193.622 146.041 196.435C145.154 199.476 144.47 203.113 141.718 205.566C140.077 207.029 138.273 208.218 137.771 205.741C137.282 203.329 137.434 200.908 138.083 198.488C138.496 196.946 139.109 193.834 141.19 192.982C144.631 191.572 148.628 197.802 150.011 199.257C151.054 200.353 154.873 204.679 157.329 202.904C159.849 201.083 160.074 196.598 160.376 194.169C160.576 192.563 160.552 194.553 160.574 194.797C160.682 195.974 160.843 197.138 161.117 198.294C161.573 200.213 163.183 197.935 163.858 197.105C164.342 196.508 164.717 195.863 165.201 195.269C165.722 194.629 166.514 196.557 166.627 196.718C167.54 198.018 169.561 201.445 171.72 199.303C172.408 198.62 172.837 197.871 172.99 197.019C173.071 196.569 173.097 197.729 173.109 197.8C173.265 198.74 173.696 198.969 174.795 198.599C175.449 198.379 175.584 198.511 176.211 198.556C181.1 198.911 186.978 197.312 191.64 196.158C194.292 195.501 192.502 196.075 193.886 196.589C194.717 196.898 194.749 195.877 194.794 195.521" stroke="black" stroke-linecap="round"/>
<path id="117f8da54a-vector-7" d="M192.616 118.159L132.905 123.024C130.566 123.214 128.808 125.065 128.978 127.157C129.149 129.249 131.183 130.79 133.522 130.6L193.233 125.734C195.572 125.544 197.331 123.694 197.16 121.602C196.99 119.51 194.955 117.968 192.616 118.159Z" fill="#1473F3" fill-opacity="0.1"/>
<path id="117f8da54a-vector-8" d="M264.905 144.298L205.195 149.163C202.855 149.354 201.097 151.204 201.268 153.296C201.438 155.388 203.473 156.93 205.812 156.739L265.523 151.874C267.862 151.683 269.62 149.833 269.449 147.741C269.279 145.649 267.245 144.108 264.905 144.298Z" fill="#1473F3" fill-opacity="0.1"/>
<path id="117f8da54a-vector-9" d="M151.593 152.005L135.374 153.327C133.035 153.517 131.277 155.368 131.447 157.46C131.618 159.552 133.652 161.093 135.991 160.903L152.211 159.581C154.55 159.39 156.308 157.54 156.137 155.448C155.967 153.356 153.932 151.815 151.593 152.005Z" fill="#1473F3" fill-opacity="0.1"/>
<path id="117f8da54a-vector-10" d="M186.442 149.166L170.223 150.487C167.883 150.678 166.125 152.528 166.296 154.62C166.466 156.712 168.501 158.254 170.84 158.063L187.059 156.742C189.398 156.551 191.156 154.701 190.986 152.609C190.815 150.517 188.781 148.975 186.442 149.166Z" fill="#1473F3" fill-opacity="0.1"/>
<path id="117f8da54a-vector-11" d="M152.704 165.642L136.485 166.963C134.146 167.154 132.388 169.004 132.559 171.096C132.729 173.188 134.763 174.73 137.103 174.539L153.322 173.218C155.661 173.027 157.419 171.177 157.248 169.085C157.078 166.993 155.044 165.451 152.704 165.642Z" fill="#1473F3" fill-opacity="0.1"/>
<path id="117f8da54a-vector-12" d="M187.553 162.802L171.334 164.124C168.994 164.314 167.236 166.165 167.407 168.257C167.577 170.349 169.612 171.89 171.951 171.699L188.17 170.378C190.509 170.187 192.267 168.337 192.097 166.245C191.926 164.153 189.892 162.612 187.553 162.802Z" fill="#1473F3" fill-opacity="0.1"/>
<path id="117f8da54a-vector-13" d="M193.727 131.795L134.016 136.66C131.677 136.851 129.919 138.701 130.09 140.793C130.26 142.885 132.294 144.426 134.634 144.236L194.344 139.371C196.684 139.18 198.442 137.33 198.271 135.238C198.101 133.146 196.066 131.604 193.727 131.795Z" fill="#1473F3" fill-opacity="0.1"/>
<path id="117f8da54a-vector-14" d="M266.016 157.934L206.305 162.799C203.966 162.99 202.208 164.84 202.379 166.932C202.549 169.024 204.584 170.566 206.923 170.375L266.634 165.51C268.973 165.32 270.731 163.469 270.56 161.377C270.39 159.285 268.355 157.744 266.016 157.934Z" fill="#1473F3" fill-opacity="0.1"/>
<g id="117f8da54a-group">
<g id="117f8da54a-group-2">
<g id="117f8da54a-group-3">
<path id="117f8da54a-vector-15" d="M77.1555 160.729C79.3043 160.517 80.8739 158.603 80.6613 156.454C80.4486 154.305 78.5343 152.735 76.3856 152.948C74.2368 153.161 72.6672 155.075 72.8799 157.224C73.0925 159.372 75.0068 160.942 77.1555 160.729Z" fill="#382210"/>
<path id="117f8da54a-vector-16" d="M79.7285 156.187C82.869 155.877 85.163 153.079 84.8522 149.938C84.5415 146.798 81.7437 144.504 78.6032 144.815C75.4626 145.125 73.1687 147.923 73.4794 151.064C73.7902 154.204 76.588 156.498 79.7285 156.187Z" fill="#382210"/>
<path id="117f8da54a-vector-17" d="M85.2453 150.134C88.3859 149.824 90.6798 147.026 90.3691 143.885C90.0583 140.745 87.2605 138.451 84.12 138.762C80.9795 139.072 78.6855 141.87 78.9963 145.011C79.307 148.151 82.1048 150.445 85.2453 150.134Z" fill="#382210"/>
<path id="117f8da54a-vector-18" d="M95.77 149.277C99.7491 148.884 102.656 145.339 102.262 141.36C101.868 137.38 98.3233 134.474 94.3442 134.868C90.3651 135.261 87.4586 138.806 87.8523 142.785C88.246 146.764 91.7909 149.671 95.77 149.277Z" fill="#382210"/>
</g>
<g id="117f8da54a-group-4">
<path id="117f8da54a-vector-19" d="M108.244 157.654C110.393 157.441 111.962 155.527 111.75 153.378C111.537 151.229 109.623 149.66 107.474 149.872C105.325 150.085 103.755 151.999 103.968 154.148C104.181 156.297 106.095 157.866 108.244 157.654Z" fill="#382210"/>
<path id="117f8da54a-vector-20" d="M104.812 153.706C107.952 153.395 110.246 150.597 109.936 147.457C109.625 144.316 106.827 142.022 103.687 142.333C100.546 142.644 98.2522 145.441 98.5629 148.582C98.8737 151.722 101.671 154.016 104.812 153.706Z" fill="#382210"/>
</g>
</g>
<path id="117f8da54a-vector-21" d="M94.8617 178.921C104.8 177.937 112.059 169.084 111.076 159.146C110.092 149.208 101.239 141.948 91.3006 142.932C81.3626 143.915 74.1033 152.769 75.0867 162.707C76.0701 172.645 84.9237 179.904 94.8617 178.921Z" fill="#816750"/>
<g id="117f8da54a-group-5">
<g id="117f8da54a-group-6">
<path id="117f8da54a-vector-22" d="M87.1149 162.165C89.9248 161.887 91.9773 159.384 91.6992 156.574C91.4212 153.764 88.9179 151.711 86.108 151.989C83.298 152.267 81.2455 154.771 81.5236 157.581C81.8016 160.39 84.3049 162.443 87.1149 162.165Z" fill="white"/>
<path id="117f8da54a-vector-23" d="M86.9111 160.107C88.5846 159.942 89.8071 158.451 89.6415 156.777C89.4759 155.104 87.9849 153.881 86.3114 154.047C84.6378 154.212 83.4154 155.703 83.581 157.377C83.7466 159.05 85.2375 160.273 86.9111 160.107Z" fill="#382210"/>
<path id="117f8da54a-vector-24" d="M85.0943 157.209C85.931 157.126 86.5423 156.381 86.4595 155.544C86.3767 154.707 85.6312 154.096 84.7944 154.179C83.9576 154.261 83.3464 155.007 83.4292 155.844C83.512 156.681 84.2575 157.292 85.0943 157.209Z" fill="white"/>
</g>
<g id="117f8da54a-group-7">
<path id="117f8da54a-vector-25" d="M99.1421 160.975C101.952 160.697 104.005 158.194 103.726 155.384C103.448 152.574 100.945 150.521 98.1352 150.799C95.3253 151.077 93.2728 153.581 93.5508 156.391C93.8288 159.201 96.3321 161.253 99.1421 160.975Z" fill="white"/>
<path id="117f8da54a-vector-26" d="M98.9385 158.917C100.612 158.752 101.835 157.261 101.669 155.587C101.503 153.914 100.012 152.691 98.3388 152.857C96.6653 153.022 95.4428 154.513 95.6084 156.187C95.774 157.86 97.265 159.083 98.9385 158.917Z" fill="#382210"/>
<path id="117f8da54a-vector-27" d="M97.1216 156.018C97.9584 155.935 98.5696 155.19 98.4868 154.353C98.404 153.516 97.6585 152.905 96.8218 152.988C95.985 153.07 95.3738 153.816 95.4566 154.653C95.5394 155.489 96.2848 156.101 97.1216 156.018Z" fill="white"/>
</g>
</g>
<g id="117f8da54a-group-8">
<g id="117f8da54a-group-9">
<path id="117f8da54a-vector-28" d="M75.2774 166.542C77.2402 166.348 78.6739 164.599 78.4797 162.636C78.2855 160.673 76.5368 159.24 74.574 159.434C72.6112 159.628 71.1775 161.377 71.3717 163.339C71.5659 165.302 73.3145 166.736 75.2774 166.542Z" fill="#816750"/>
<path id="117f8da54a-vector-29" d="M75.5648 163.55C76.2569 163.481 76.5496 162.621 76.0133 162.165C75.6209 161.826 75.0749 161.653 74.4969 161.729C73.5092 161.865 72.7845 162.748 72.8452 163.744C72.8838 164.325 73.1583 164.808 73.5694 165.145C74.102 165.565 74.9067 165.107 74.8401 164.434C74.8144 163.983 75.1346 163.593 75.5648 163.55Z" fill="#BC9776"/>
</g>
<g id="117f8da54a-group-10">
<path id="117f8da54a-vector-30" d="M111.621 162.945C113.584 162.751 115.018 161.002 114.824 159.039C114.63 157.077 112.881 155.643 110.918 155.837C108.955 156.031 107.522 157.78 107.716 159.743C107.91 161.706 109.659 163.139 111.621 162.945Z" fill="#816750"/>
<path id="117f8da54a-vector-31" d="M110.338 160.109C109.646 160.177 109.19 159.391 109.627 158.838C109.945 158.429 110.447 158.153 111.028 158.114C112.023 158.053 112.907 158.778 113.043 159.766C113.119 160.344 112.944 160.871 112.607 161.282C112.167 161.798 111.288 161.507 111.222 160.834C111.159 160.387 110.768 160.066 110.338 160.109Z" fill="#BC9776"/>
</g>
</g>
<path id="117f8da54a-vector-32" d="M104.019 157.146L81.1802 159.406L81.6022 163.671L104.441 161.411L104.019 157.146Z" fill="#816750"/>
<path id="117f8da54a-ellipse-203" d="M95.8567 160.408C95.9481 161.53 94.8856 162.532 93.4836 162.646C92.0816 162.76 90.8709 161.943 90.7795 160.822" stroke="#38210E" stroke-linecap="round"/>
</g>
</g>
<g id="117f8da54a-fxg-hover">
<g id="117f8da54a-eye" filter="url(#117f8da54a-filter-1-d-1961-81058)" data-fx="{&quot;hover&quot;:{}}">
<path id="117f8da54a-vector-33" d="M181.949 86.0526C196.323 86.0526 207.975 74.4002 207.975 60.0263C207.975 45.6524 196.323 34 181.949 34C167.575 34 155.923 45.6524 155.923 60.0263C155.923 74.4002 167.575 86.0526 181.949 86.0526Z" fill="#FBF9F9"/>
<path id="117f8da54a-vector-34" d="M200.758 78.0174L218.771 60.0042L200.758 41.9909L182.745 60.0042L200.758 78.0174Z" fill="#FBF9F9"/>
<path id="117f8da54a-vector-35" d="M163.013 77.9837L181.027 59.9705L163.013 41.9572L145 59.9705L163.013 77.9837Z" fill="#FBF9F9"/>
<g id="117f8da54a-group-11">
<path id="117f8da54a-vector-36" d="M181.949 79.546C192.73 79.546 201.469 70.8067 201.469 60.0263C201.469 49.2459 192.73 40.5066 181.949 40.5066C171.169 40.5066 162.43 49.2459 162.43 60.0263C162.43 70.8067 171.169 79.546 181.949 79.546Z" fill="#A688FF"/>
<path id="117f8da54a-vector-37" d="M181.949 70.0618C187.492 70.0618 191.985 65.5688 191.985 60.0263C191.985 54.4838 187.492 49.9907 181.949 49.9907C176.407 49.9907 171.914 54.4838 171.914 60.0263C171.914 65.5688 176.407 70.0618 181.949 70.0618Z" fill="#342421"/>
<path id="117f8da54a-vector-38" d="M188.456 58.9236C191.501 58.9236 193.97 56.4549 193.97 53.4096C193.97 50.3642 191.501 47.8955 188.456 47.8955C185.41 47.8955 182.942 50.3642 182.942 53.4096C182.942 56.4549 185.41 58.9236 188.456 58.9236Z" fill="#FBF9F9"/>
</g>
</g>
<g id="117f8da54a-arrow" filter="url(#117f8da54a-filter-2-d-1961-81058)" data-fx="{&quot;hover&quot;:{}}">
<path fill-rule="evenodd" clip-rule="evenodd" d="M294.799 143.519L263 132L274.519 163.799L280.855 156.402L290.454 166L297 159.454L287.402 149.856L294.799 143.519Z" fill="#131744"/>
</g>
</g>
</g>
</g>
<defs>
<filter id="117f8da54a-filter-0-d-1961-81058" x="45.6228" y="89.1047" width="244.357" height="164.247" filterUnits="userSpaceOnUse" color-interpolation-filters="sRGB">
<feFlood flood-opacity="0" result="BackgroundImageFix"/>
<feColorMatrix in="SourceAlpha" type="matrix" values="0 0 0 0 0 0 0 0 0 0 0 0 0 0 0 0 0 0 127 0" result="hardAlpha"/>
<feOffset dx="3" dy="5"/>
<feColorMatrix type="matrix" values="0 0 0 0 0 0 0 0 0 0 0 0 0 0 0 0 0 0 0.1 0"/>
<feBlend mode="normal" in2="BackgroundImageFix" result="effect1_dropShadow_1961_81058"/>
<feBlend mode="normal" in="SourceGraphic" in2="effect1_dropShadow_1961_81058" result="shape"/>
</filter>
<filter id="117f8da54a-filter-1-d-1961-81058" x="145" y="34" width="76.7714" height="57.0525" filterUnits="userSpaceOnUse" color-interpolation-filters="sRGB">
<feFlood flood-opacity="0" result="BackgroundImageFix"/>
<feColorMatrix in="SourceAlpha" type="matrix" values="0 0 0 0 0 0 0 0 0 0 0 0 0 0 0 0 0 0 127 0" result="hardAlpha"/>
<feOffset dx="3" dy="5"/>
<feColorMatrix type="matrix" values="0 0 0 0 0 0 0 0 0 0 0 0 0 0 0 0 0 0 0.1 0"/>
<feBlend mode="normal" in2="BackgroundImageFix" result="effect1_dropShadow_1961_81058"/>
<feBlend mode="normal" in="SourceGraphic" in2="effect1_dropShadow_1961_81058" result="shape"/>
</filter>
<filter id="117f8da54a-filter-2-d-1961-81058" x="263" y="132" width="37" height="39" filterUnits="userSpaceOnUse" color-interpolation-filters="sRGB">
<feFlood flood-opacity="0" result="BackgroundImageFix"/>
<feColorMatrix in="SourceAlpha" type="matrix" values="0 0 0 0 0 0 0 0 0 0 0 0 0 0 0 0 0 0 127 0" result="hardAlpha"/>
<feOffset dx="3" dy="5"/>
<feColorMatrix type="matrix" values="0 0 0 0 0 0 0 0 0 0 0 0 0 0 0 0 0 0 0.1 0"/>
<feBlend mode="normal" in2="BackgroundImageFix" result="effect1_dropShadow_1961_81058"/>
<feBlend mode="normal" in="SourceGraphic" in2="effect1_dropShadow_1961_81058" result="shape"/>
</filter>
</defs>
</svg>